<?xml version="1.0" encoding="UTF-8"?>
<svg version="1.1" xmlns="http://www.w3.org/2000/svg" width="4800" height="1506">
<path d="M0 0 C1584 0 3168 0 4800 0 C4800 496.98 4800 993.96 4800 1506 C3216 1506 1632 1506 0 1506 C0 1009.02 0 512.04 0 0 Z " fill="#FEFEFE" transform="translate(0,0)"/>
<path d="M0 0 C1.18722656 0.36738281 2.37445312 0.73476563 3.59765625 1.11328125 C46.54162966 14.74699359 80.90566033 40.78450537 107.1796875 77.125 C109.00713178 79.65083867 110.86409449 82.14849599 112.7578125 84.625 C123.10066871 98.23092342 132.07246754 112.91499655 138 129 C138.2779541 129.74378906 138.5559082 130.48757813 138.84228516 131.25390625 C143.99027925 145.23625097 147.41696865 159.33930575 150 174 C150.18159668 175.01223633 150.36319336 176.02447266 150.55029297 177.06738281 C153.24529565 192.53499094 154.58972261 208.03765324 155.625 223.6875 C155.68157776 224.54129242 155.73815552 225.39508484 155.79644775 226.27474976 C156.1663845 231.97564887 156.48885297 237.67843657 156.79733276 243.38296509 C156.94088972 245.94504923 157.09147611 248.50592823 157.25125122 251.06698608 C159.1755174 282.04330453 159.27609806 312.96947761 159.19561768 343.99731445 C159.18477322 349.2610318 159.18519801 354.52472367 159.18561554 359.78845024 C159.18499217 395.41627216 158.83382543 430.93147163 156.625 466.5 C156.55997284 467.56531952 156.49494568 468.63063904 156.427948 469.72824097 C155.4534032 485.55946827 154.27818063 501.29480906 152 517 C151.85449707 518.04784668 151.70899414 519.09569336 151.55908203 520.17529297 C149.65192827 533.77158388 147.20815511 546.92475731 143 560 C142.72172363 560.88365234 142.44344727 561.76730469 142.15673828 562.67773438 C136.20159855 581.39664843 128.61414164 599.05251475 117 615 C116.4838916 615.72074707 115.9677832 616.44149414 115.43603516 617.18408203 C108.71253299 626.56964295 101.92352507 635.59333316 94 644 C92.93395894 645.26786437 91.87140456 646.53866927 90.8125 647.8125 C68.9375464 672.74794022 36.61022764 693.29052236 5 703 C3.5827334 703.49829692 2.16601442 703.99815581 0.75 704.5 C-0.82950729 705.01195816 -2.41363268 705.50971114 -4 706 C-4.59699707 706.185625 -5.19399414 706.37125 -5.80908203 706.5625 C-17.75484878 710.22491472 -29.60531383 712.49934068 -42 714 C-42.82306641 714.10441406 -43.64613281 714.20882812 -44.49414062 714.31640625 C-80.35335114 718.76013587 -117.58336455 716.64556245 -151 702 C-151.60489258 701.73525879 -152.20978516 701.47051758 -152.83300781 701.19775391 C-182.7579316 687.95339797 -212.13255446 670.55654418 -236 648 C-237.96212063 646.28675129 -239.93646931 644.58919774 -241.91796875 642.8984375 C-245.04976826 640.04280042 -248.00309899 636.99690101 -251 634 C-251.33 753.13 -251.66 872.26 -252 995 C-297.54 995 -343.08 995 -390 995 C-390 665.99 -390 336.98 -390 -2 C-344.46 -2 -298.92 -2 -252 -2 C-251.67 21.76 -251.34 45.52 -251 70 C-247.535 66.04 -247.535 66.04 -244 62 C-236.13376631 53.74045463 -228.0790145 45.93261705 -219 39 C-218.46890625 38.58717773 -217.9378125 38.17435547 -217.390625 37.74902344 C-156.95439407 -9.06826325 -72.95523123 -24.25645267 0 0 Z " fill="#FE530D" transform="translate(1554,378)"/>
<path d="M0 0 C0.93718872 -0.00350464 1.87437744 -0.00700928 2.83996582 -0.01062012 C5.93318117 -0.0194113 9.02616715 -0.01359696 12.11938477 -0.00683594 C14.27262923 -0.00818345 16.4258734 -0.0101247 18.57911682 -0.01263428 C23.09069721 -0.0155821 27.60219836 -0.01129925 32.11376953 -0.00195312 C37.89186896 0.0094343 43.66978244 0.0028842 49.44787502 -0.00909805 C53.89428605 -0.01633168 58.34065314 -0.01402168 62.78706551 -0.00884247 C64.91728805 -0.00750978 67.04751461 -0.00914034 69.17773247 -0.01380157 C72.15765798 -0.01889067 75.13728422 -0.01112262 78.1171875 0 C78.99478226 -0.00404846 79.87237701 -0.00809692 80.77656555 -0.01226807 C87.57989532 0.03468325 93.04654521 0.97615602 98.29516602 5.72753906 C101.28933694 9.17964201 102.6644227 12.9524592 102.58273315 17.53294373 C101.7256264 25.7679608 100.63677671 33.96785498 99.50610352 42.16894531 C99.29073326 43.74504927 99.0756065 45.32118652 98.86070251 46.89735413 C98.4000012 50.27332454 97.93788479 53.64909692 97.47463989 57.02471924 C96.35688181 65.17110207 95.24719849 73.3185871 94.13666725 81.46595764 C93.74931339 84.30728668 93.36168854 87.14857866 92.9740448 89.98986816 C90.30242381 109.57918251 87.66507857 129.17306419 85.03676605 148.76823044 C84.69119646 151.3435063 84.34521509 153.91872649 83.99908447 156.493927 C83.34288573 161.37635314 82.68781501 166.25892971 82.03344727 171.14160156 C81.87796669 172.30092225 81.87796669 172.30092225 81.71934509 173.48366356 C80.61938201 181.69190478 79.53465034 189.90171008 78.48999023 198.1171875 C78.35433796 199.18132401 78.35433796 199.18132401 78.21594524 200.26695824 C77.7943051 203.57715204 77.37592529 206.88765786 76.96339417 210.19900513 C76.16605572 216.49527527 75.24295997 222.73349773 74.05213928 228.96800232 C71.99812578 239.93996433 71.00458704 251.20842087 69.62329102 262.25878906 C96.02329102 262.25878906 122.42329102 262.25878906 149.62329102 262.25878906 C149.95329102 257.63878906 150.28329102 253.01878906 150.62329102 248.25878906 C150.97340103 245.34527429 151.34369716 242.46432565 151.78735352 239.56738281 C151.9000206 238.79955475 152.01268768 238.03172668 152.12876892 237.2406311 C152.37134881 235.58819247 152.61599523 233.93605605 152.86257935 232.28421021 C153.54706379 227.69168189 154.21264702 223.09642582 154.87719727 218.50097656 C155.01868698 217.52320755 155.1601767 216.54543854 155.30595398 215.53804016 C157.03920902 203.4800349 158.60839585 191.40047518 160.18579102 179.32128906 C162.17385751 164.11832479 164.20378202 148.92597536 166.41555786 133.75393677 C168.44955151 119.77279117 170.28849254 105.76729086 172.12329102 91.75878906 C174.65579731 72.42673854 177.28082297 53.11284163 180.10742188 33.8215332 C180.46558382 31.34796136 180.81471743 28.87307208 181.15673828 26.3972168 C181.4147522 24.53432007 181.4147522 24.53432007 181.67797852 22.63378906 C181.8286377 21.5290625 181.97929688 20.42433594 182.13452148 19.28613281 C183.27828338 12.20189329 184.78979083 6.8422535 190.62329102 2.25878906 C195.34420819 -0.28441291 199.97723304 -0.02349394 205.19946289 0 C206.15776505 -0.00350464 207.1160672 -0.00700928 208.10340881 -0.01062012 C211.26636023 -0.01941176 214.42908738 -0.01359727 217.59204102 -0.00683594 C219.7925216 -0.00818332 221.99300188 -0.01012447 224.19348145 -0.01263428 C228.80341427 -0.01558206 233.41326955 -0.01129893 238.02319336 -0.00195312 C243.93142622 0.00944114 249.83947736 0.00287984 255.74770355 -0.00909805 C260.2910092 -0.01632592 264.83427179 -0.01402444 269.37757874 -0.00884247 C271.55607627 -0.00750854 273.73457771 -0.00914469 275.91307068 -0.01380157 C278.95785882 -0.01888195 282.00235289 -0.01113512 285.04711914 0 C286.39695641 -0.00607269 286.39695641 -0.00607269 287.77406311 -0.01226807 C293.81872761 0.02867331 297.72805116 0.49577524 302.31079102 4.75878906 C303.07391602 5.58378906 303.83704102 6.40878906 304.62329102 7.25878906 C305.28329102 7.91878906 305.94329102 8.57878906 306.62329102 9.25878906 C308.61387346 17.61923534 307.41565506 25.77631624 306.11938477 34.12988281 C305.95841812 35.20093765 305.79745148 36.27199249 305.63160706 37.37550354 C305.11351225 40.81662535 304.58761525 44.25649392 304.06079102 47.69628906 C303.38990361 52.11121475 302.72253483 56.52666458 302.05688477 60.94238281 C301.87347534 62.15862839 301.69006592 63.37487396 301.50109863 64.62797546 C298.60840962 83.91034476 295.89904577 103.21966164 293.15451431 122.5235405 C292.20316889 129.2128398 291.25050763 135.90195171 290.29785156 142.59106445 C290.19751794 143.29559372 290.09718433 144.00012298 289.9938103 144.72600162 C288.21989392 157.18205726 286.44490665 169.63796019 284.66907787 182.09374332 C283.58889355 189.67065358 282.50956293 197.24768402 281.43188477 204.82495117 C280.47093058 211.58149118 279.50850812 218.33782013 278.54431331 225.09389848 C278.03971845 228.62994852 277.53584724 232.16609807 277.03378677 235.70250893 C276.48142466 239.59309549 275.92579833 243.48321191 275.36987305 247.37329102 C275.12526588 249.10171989 275.12526588 249.10171989 274.87571716 250.86506653 C274.72458969 251.91883484 274.57346222 252.97260315 274.41775513 254.05830383 C274.28765612 254.97176229 274.15755711 255.88522074 274.0235157 256.82635975 C273.66373715 259.01297124 273.19834225 261.1200038 272.62329102 263.25878906 C274.33218002 263.25212723 274.33218002 263.25212723 276.07559204 263.24533081 C286.8164966 263.20477243 297.5573856 263.17479872 308.29834938 263.15516472 C313.82026997 263.14473135 319.34212869 263.13058017 324.86401367 263.10791016 C330.19377627 263.08616604 335.52347939 263.07421708 340.85328293 263.06903458 C342.88582673 263.06534166 344.91836731 263.05813032 346.95088577 263.04732895 C349.79960392 263.03279331 352.64807685 263.030812 355.49682617 263.03173828 C356.33552246 263.02454773 357.17421875 263.01735718 358.03833008 263.00994873 C364.09264437 263.03122475 368.7212438 263.52965523 373.37329102 267.75878906 C374.11579102 268.58378906 374.85829102 269.40878906 375.62329102 270.25878906 C376.28329102 270.91878906 376.94329102 271.57878906 377.62329102 272.25878906 C378.93357986 276.28114118 378.77098156 280.34074484 378.76855469 284.52807617 C378.77359261 285.77511574 378.77359261 285.77511574 378.7787323 287.04734802 C378.78822579 289.79362485 378.79018453 292.53984061 378.79125977 295.28613281 C378.79447316 297.19657924 378.7978373 299.10702541 378.80134583 301.01747131 C378.80733287 305.02133759 378.80918613 309.0251823 378.80859375 313.02905273 C378.80849208 318.15821151 378.82215083 323.287232 378.83936596 328.41635799 C378.85048614 332.36174657 378.85251296 336.3071017 378.85198402 340.25250435 C378.85316386 342.14352457 378.85758584 344.03454567 378.86531639 345.92555046 C378.87511774 348.57050132 378.87223779 351.21515168 378.86621094 353.86010742 C378.87183044 354.64001038 378.87744995 355.41991333 378.88323975 356.22344971 C378.84914987 362.11338664 378.15163763 365.61581645 374.12329102 369.94628906 C373.29829102 370.70941406 372.47329102 371.47253906 371.62329102 372.25878906 C370.96329102 372.91878906 370.30329102 373.57878906 369.62329102 374.25878906 C366.73292911 375.22945946 364.07637819 375.38257172 361.04217529 375.37904358 C360.127948 375.38041824 359.2137207 375.38179291 358.27178955 375.38320923 C356.77854156 375.37781631 356.77854156 375.37781631 355.25512695 375.37231445 C353.67417236 375.37253349 353.67417236 375.37253349 352.0612793 375.37275696 C348.57672062 375.37206016 345.09221536 375.36427859 341.60766602 375.35644531 C339.19199655 375.35458031 336.77632671 375.35315679 334.36065674 375.35215759 C328.00173906 375.34833892 321.64284421 375.33851414 315.28393555 375.32745361 C308.79549468 375.31722555 302.30705012 375.31265698 295.81860352 375.30761719 C283.08682294 375.29689133 270.35505819 375.28001481 257.62329102 375.25878906 C257.5683699 376.21806305 257.51344879 377.17733704 257.4568634 378.16567993 C256.98845127 385.81352944 256.34086512 393.33452859 255.13500977 400.90722656 C254.99180801 401.8397525 254.84860626 402.77227844 254.70106506 403.73306274 C254.24373347 406.70095311 253.77742349 409.66734833 253.31079102 412.63378906 C252.99092809 414.69881167 252.67159574 416.76391653 252.3527832 418.82910156 C250.5820349 430.26924169 248.76758705 441.70225274 246.90576172 453.12792969 C245.67998878 460.71445221 244.6368879 468.32042792 243.6262207 475.93823242 C242.95006633 480.99774841 242.17662032 486.00837547 241.19116211 491.01806641 C240.37142853 495.69611608 239.72338145 500.39610324 239.06079102 505.09863281 C238.9222168 506.0757019 238.78364258 507.052771 238.64086914 508.05944824 C238.30068168 510.45908952 237.96151994 512.85887108 237.62329102 515.25878906 C238.75588852 515.24990662 239.88848602 515.24102417 241.05540466 515.23187256 C251.75118205 515.15063648 262.44689648 515.09075156 273.14291286 515.05154037 C278.64130492 515.03070349 284.13944706 515.00245694 289.63769531 514.95703125 C294.94803879 514.91343467 300.25814251 514.88962265 305.5686512 514.87928009 C307.59037103 514.8719135 309.61207838 514.85752838 311.6336956 514.83586884 C314.4748311 514.80665131 317.31498743 514.80284072 320.15625 514.8046875 C320.98416046 514.7903064 321.81207092 514.77592529 322.66506958 514.7611084 C329.1500267 514.80644817 335.24637042 516.33518577 340.25427914 520.67083359 C345.02884185 525.99100863 344.77268175 531.53046576 344.76855469 538.33447266 C344.77359261 539.53302132 344.77359261 539.53302132 344.7787323 540.75578308 C344.78820861 543.38961352 344.79018372 546.02338015 344.79125977 548.65722656 C344.79447458 550.49419175 344.79783882 552.33115668 344.80134583 554.16812134 C344.80732874 558.0163838 344.80918658 561.86462384 344.80859375 565.71289062 C344.80849216 570.6344405 344.82214495 575.555846 344.83936596 580.47736168 C344.85050557 584.27099259 344.85251236 588.06458881 344.85198402 591.85823441 C344.85316115 593.67224246 344.85756792 595.48625149 344.86531639 597.30024338 C344.87515619 599.84170282 344.8722226 602.38285154 344.86621094 604.92431641 C344.8746402 606.03895012 344.8746402 606.03895012 344.88323975 607.17610168 C344.84665848 613.28772084 344.26095855 618.36917268 340.18579102 623.07128906 C333.49098594 628.78636657 327.06443506 628.40501518 318.6706543 628.37231445 C317.19167412 628.37253349 317.19167412 628.37253349 315.68281555 628.37275696 C312.43638886 628.37206245 309.19002014 628.36429168 305.94360352 628.35644531 C303.68773429 628.35457949 301.43186465 628.35315636 299.17599487 628.35215759 C293.24783198 628.34834534 287.31969371 628.33852607 281.39154053 628.32745361 C275.33858574 628.31721173 269.28562697 628.31265402 263.23266602 628.30761719 C251.36286355 628.29690264 239.49307933 628.27984173 227.62329102 628.25878906 C227.43065674 629.91616592 227.43065674 629.91616592 227.23413086 631.60702515 C226.29265389 639.67818241 225.33321063 647.74448741 224.24829102 655.79785156 C224.12313614 656.73354477 223.99798126 657.66923798 223.86903381 658.63328552 C223.45563405 661.7170383 223.0396867 664.80043947 222.62329102 667.88378906 C222.40236282 669.52466995 222.40236282 669.52466995 222.17697144 671.19869995 C219.22448196 693.10616016 216.13926083 714.99436024 213.04013062 736.88143921 C210.27347604 756.42253795 207.55845336 775.9689685 204.92901611 795.52908325 C202.43100005 814.10222372 199.91558143 832.67308866 197.26132202 851.22463989 C196.9654945 853.2989994 196.67245603 855.37375896 196.38247681 857.44894409 C195.98530845 860.28524646 195.57730674 863.1197818 195.16625977 865.95410156 C195.05406097 866.77001266 194.94186218 867.58592377 194.82626343 868.42655945 C192.69260214 882.82769343 192.69260214 882.82769343 187.87329102 887.19628906 C181.57146129 891.19552716 175.4691784 891.55451796 168.23486328 891.53344727 C167.32010223 891.5385582 166.40534119 891.54366913 165.46286011 891.54893494 C162.45507162 891.56277428 159.44751371 891.56187852 156.43969727 891.55957031 C154.33894262 891.56346013 152.23818876 891.56779539 150.13743591 891.57255554 C145.74036099 891.58000543 141.34336639 891.57973523 136.94628906 891.57446289 C131.32307899 891.56866765 125.70019823 891.58560673 120.07704258 891.60880756 C115.74035229 891.6235677 111.40374091 891.62441353 107.06702995 891.62129784 C104.99427577 891.62180982 102.92151702 891.62702447 100.84878731 891.63710976 C97.94601395 891.649502 95.04387712 891.64266583 92.14111328 891.63110352 C91.29255264 891.63874725 90.443992 891.64639099 89.56971741 891.65426636 C83.30817912 891.59938137 77.60509681 890.64649693 72.56469727 886.61035156 C67.53967135 880.31839277 67.24308063 875.25026226 67.62329102 867.25878906 C68.20976279 862.05115742 68.99666265 856.87647057 69.78344727 851.69628906 C70.01151945 850.16186263 70.23897822 848.62734492 70.46586609 847.09274292 C70.94831701 843.83745479 71.43465588 840.58278202 71.92419434 837.32855225 C72.69346904 832.21398982 73.45376257 827.09811912 74.2121582 821.98193359 C74.46663176 820.26577573 74.72111783 818.54961972 74.97561646 816.83346558 C75.1012006 815.9865704 75.22678474 815.13967522 75.35617447 814.26711655 C75.73637731 811.70541511 76.11743173 809.14384171 76.49874878 806.58230591 C78.50417026 793.10612691 80.45874932 779.62319289 82.37329102 766.13378906 C82.65019307 764.18668125 82.92712979 762.23957837 83.20410156 760.29248047 C83.74384948 756.49617927 84.28289356 752.69977891 84.8215332 748.90332031 C85.6401912 743.13592356 86.46321843 737.36915543 87.28735352 731.60253906 C87.42752899 730.62162292 87.56770447 729.64070679 87.71212769 728.63006592 C88.42283298 723.65761615 89.13399887 718.68523245 89.84545898 713.71289062 C91.37263711 703.03548627 92.89380446 692.35726008 94.40585327 681.67770386 C95.12890305 676.57140116 95.85388949 671.46537389 96.57930946 666.35940742 C97.1880071 662.07386829 97.79426148 657.78799252 98.39877701 653.50186157 C98.86460366 650.20437262 99.3340852 646.9074058 99.80297852 643.61035156 C100.05718567 641.79993378 100.05718567 641.79993378 100.31652832 639.95294189 C100.47431763 638.84811462 100.63210693 637.74328735 100.79467773 636.60498047 C100.93122772 635.64024811 101.06777771 634.67551575 101.20846558 633.68154907 C101.62329102 631.25878906 101.62329102 631.25878906 102.62329102 628.25878906 C75.89329102 628.25878906 49.16329102 628.25878906 21.62329102 628.25878906 C21.29329102 633.20878906 20.96329102 638.15878906 20.62329102 643.25878906 C20.26261494 646.4553601 19.88084021 649.62105997 19.42407227 652.80175781 C19.30871628 653.63676315 19.19336029 654.47176849 19.07450867 655.33207703 C18.69971227 658.03750371 18.31770504 660.7418589 17.93579102 663.44628906 C17.66633693 665.38452317 17.3974694 667.3228389 17.12915039 669.26123047 C16.57307014 673.27458269 16.01451218 677.28757728 15.45385742 681.30029297 C14.28524064 689.67223709 13.13710859 698.04696666 11.99353027 706.42236328 C11.74552094 708.23864526 11.49722725 710.05488842 11.24865723 711.87109375 C9.46154692 724.93444691 7.74104295 738.00535645 6.05514526 751.0821228 C3.58366947 770.24724037 0.93059287 789.38067207 -1.83251953 808.50585938 C-3.87628074 822.66389431 -5.83791416 836.83064572 -7.69140625 851.01489258 C-8.22846203 855.09982133 -8.79362547 859.18018923 -9.37670898 863.25878906 C-9.48743744 864.04441223 -9.59816589 864.8300354 -9.71224976 865.63946533 C-10.0637886 868.08919589 -10.43444816 870.53533848 -10.81030273 872.98144531 C-10.91691223 873.73421249 -11.02352173 874.48697968 -11.13336182 875.26255798 C-11.98523456 880.61354012 -13.56085106 884.11554751 -17.36499023 887.94628906 C-22.8431882 891.52041434 -28.42354618 891.55594521 -34.72753906 891.54931641 C-36.11168251 891.55939224 -36.11168251 891.55939224 -37.52378845 891.56967163 C-40.56466098 891.58861965 -43.6053124 891.59257428 -46.64624023 891.59472656 C-48.76844879 891.60115688 -50.89065645 891.60788542 -53.01286316 891.61489868 C-57.45879165 891.62686359 -61.90464249 891.63058033 -66.35058594 891.62939453 C-72.03321782 891.62919143 -77.7153491 891.65648821 -83.39786243 891.69093895 C-87.78092208 891.71323284 -92.16386175 891.7172313 -96.54697227 891.71617508 C-98.64123954 891.71852748 -100.73551029 891.72733058 -102.82972145 891.74283981 C-105.76606405 891.76254917 -108.70133352 891.75664208 -111.63769531 891.74462891 C-112.49358246 891.75586792 -113.3494696 891.76710693 -114.23129272 891.77868652 C-121.35435027 891.70504743 -127.62406812 889.9408494 -132.81420898 884.88378906 C-140.13194442 872.58999353 -134.21437574 854.40377353 -132.25170898 841.00878906 C-131.97786524 839.12212923 -131.704427 837.2354105 -131.43139648 835.34863281 C-130.98038059 832.23282528 -130.52899996 829.11707336 -130.07640076 826.00149536 C-128.43981346 814.72765559 -126.82703201 803.45044608 -125.21655273 792.17285156 C-125.07015539 791.14773594 -124.92375805 790.12262032 -124.77292442 789.06644058 C-122.70612319 774.59154315 -120.64390896 760.11599336 -118.58319473 745.64022827 C-117.0117448 734.60152367 -115.43900472 723.56300327 -113.86545944 712.52459717 C-112.85368345 705.42655078 -111.84275581 698.32838511 -110.83349609 691.22998047 C-109.93151358 684.88611637 -109.02803164 678.54246786 -108.12278682 672.19906843 C-107.65001475 668.88580124 -107.17818083 665.57240746 -106.70773888 662.25880814 C-106.18879697 658.60438452 -105.66721239 654.95034701 -105.14501953 651.29638672 C-104.9948941 650.2347229 -104.84476868 649.17305908 -104.69009399 648.07922363 C-103.73792626 641.44130183 -102.62378642 634.84766353 -101.37670898 628.25878906 C-102.48425034 628.2654509 -103.59179169 628.27211273 -104.7328949 628.27897644 C-115.19323883 628.33990966 -125.65354654 628.38482027 -136.11402798 628.41422558 C-141.49129599 628.42985157 -146.8684202 628.4510338 -152.24560547 628.48510742 C-157.439229 628.51781024 -162.6327146 628.53566512 -167.82643318 628.54342079 C-169.80347933 628.54894472 -171.78051832 628.55973147 -173.75750542 628.57597923 C-176.53625414 628.59789874 -179.31443984 628.60074994 -182.09326172 628.59936523 C-183.3070752 628.61554398 -183.3070752 628.61554398 -184.54541016 628.63204956 C-190.55918981 628.59982593 -197.12309285 627.85759106 -201.97301388 623.98375225 C-207.1133876 618.33068807 -207.67653248 611.46588254 -207.65136719 604.15551758 C-207.65647812 603.37730652 -207.66158905 602.59909546 -207.66685486 601.79730225 C-207.68066957 599.24402006 -207.67980036 596.69101025 -207.67749023 594.13769531 C-207.68138141 592.35082399 -207.68571695 590.56395358 -207.69047546 588.77708435 C-207.69792005 585.03910315 -207.69765904 581.30121643 -207.69238281 577.56323242 C-207.68658823 572.78747785 -207.70352745 568.01211111 -207.72672749 563.23642063 C-207.74150144 559.54825096 -207.74233159 555.86017393 -207.73921776 552.1719799 C-207.73972905 550.41182626 -207.74493057 548.65166718 -207.75502968 546.89154243 C-207.76744923 544.42459443 -207.76057008 541.9583923 -207.74902344 539.49145508 C-207.75666718 538.77380478 -207.76431091 538.05615448 -207.77218628 537.3167572 C-207.70616134 530.89314235 -206.16822 525.49817783 -202.12670898 520.44628906 C-195.68395262 515.32136923 -190.09209883 514.82661968 -182.12695312 514.91821289 C-180.61849319 514.91755577 -180.61849319 514.91755577 -179.07955933 514.91688538 C-175.77346009 514.91896638 -172.4678753 514.94226538 -169.16186523 514.96582031 C-166.86258725 514.9714187 -164.56330568 514.97568765 -162.26402283 514.97868347 C-156.22563723 514.99011304 -150.18746965 515.0195642 -144.14916992 515.05279541 C-137.98220773 515.08353688 -131.81521016 515.09719753 -125.64819336 515.11230469 C-113.55760302 515.14443552 -101.46717416 515.19560921 -89.37670898 515.25878906 C-89.25163971 514.09106461 -89.12657043 512.92334015 -88.99771118 511.7202301 C-88.0629752 503.08886377 -87.06187814 494.48924137 -85.71264648 485.91113281 C-85.39571752 483.84790568 -85.0788246 481.78467301 -84.76196289 479.72143555 C-84.59738586 478.65899628 -84.43280884 477.59655701 -84.26324463 476.50192261 C-80.62561785 452.99493688 -77.24958304 429.45562463 -73.99145508 405.89331055 C-73.83086609 404.73549072 -73.6702771 403.5776709 -73.50482178 402.38476562 C-73.20785699 400.24183831 -72.91234828 398.0987084 -72.61871338 395.95532227 C-71.66031288 389.03451377 -70.55715187 382.1451178 -69.37670898 375.25878906 C-70.47616348 375.26323029 -71.57561798 375.26767151 -72.70838928 375.27224731 C-83.08107806 375.31283026 -93.45375067 375.34279119 -103.82650089 375.36241341 C-109.15894447 375.37284057 -114.49132384 375.38698036 -119.82373047 375.40966797 C-124.97194994 375.43143429 -130.12010773 375.44336572 -135.26836967 375.44854355 C-137.23031014 375.45223249 -139.19224732 375.45943606 -141.15416145 375.47024918 C-143.90688438 375.48481438 -146.65935398 375.48676489 -149.41210938 375.48583984 C-150.21915817 375.4930304 -151.02620697 375.50022095 -151.85771179 375.50762939 C-158.02488051 375.48527479 -163.36049553 375.00617405 -168.18920898 370.82128906 C-173.43302822 364.67852938 -173.52693733 359.18185334 -173.52197266 351.36083984 C-173.52533127 350.59252838 -173.52868988 349.82421692 -173.53215027 349.03262329 C-173.54160693 346.50643269 -173.54360067 343.98030874 -173.54467773 341.45410156 C-173.54789382 339.68822198 -173.55125816 337.92234266 -173.55476379 336.15646362 C-173.56074173 332.45960879 -173.56260505 328.76277729 -173.56201172 325.06591797 C-173.56191014 320.34291041 -173.57556441 315.6200533 -173.59278393 310.89708138 C-173.60393464 307.25095948 -173.60592999 303.60487362 -173.60540199 299.95873642 C-173.6065774 298.21812293 -173.61097435 296.47750836 -173.61873436 294.73691177 C-173.62859714 292.29634481 -173.6256317 289.85610016 -173.61962891 287.41552734 C-173.62524841 286.70565674 -173.63086792 285.99578613 -173.63665771 285.2644043 C-173.59858893 279.1340052 -173.03216382 273.387231 -169.18920898 268.44628906 C-162.63764299 263.35062662 -157.08306469 262.82658147 -149.03515625 262.91821289 C-148.01976273 262.91777481 -147.0043692 262.91733673 -145.95820618 262.91688538 C-142.61964334 262.91896658 -139.28158978 262.94226655 -135.94311523 262.96582031 C-133.62141697 262.97141863 -131.29971516 262.97568762 -128.97801208 262.97868347 C-122.88044373 262.9901136 -116.78309124 263.01956526 -110.68560791 263.05279541 C-104.45832234 263.08353566 -98.23100175 263.09719727 -92.00366211 263.11230469 C-79.79458312 263.14443651 -67.58566404 263.19561089 -55.37670898 263.25878906 C-55.32056427 262.15400711 -55.26441956 261.04922516 -55.20657349 259.91096497 C-54.7743588 251.7855662 -54.22970065 243.75756473 -52.99389648 235.70800781 C-52.85907867 234.78663528 -52.72426086 233.86526276 -52.58535767 232.91596985 C-52.29677614 230.94751729 -52.00509001 228.97951761 -51.71044922 227.01196289 C-50.90380012 221.62128021 -50.1221713 216.22694692 -49.33764648 210.83300781 C-49.17443909 209.71473602 -49.01123169 208.59646423 -48.84307861 207.44430542 C-47.09142244 195.39526666 -45.48127397 183.32813021 -43.87670898 171.25878906 C-41.6511511 154.55816536 -39.34573966 137.87178826 -36.93920898 121.19628906 C-33.71449079 98.84713671 -30.6609374 76.47631671 -27.6466217 54.09797668 C-27.33434424 51.78271545 -27.02100117 49.46759765 -26.70652771 47.15263367 C-25.97292262 41.74346329 -25.25616752 36.33340019 -24.58178711 30.91650391 C-24.45443176 29.91898605 -24.32707642 28.9214682 -24.19586182 27.89372253 C-23.96132626 26.05268486 -23.73405001 24.21069908 -23.51605225 22.36763 C-22.49022076 14.42482586 -20.88116245 7.52429901 -14.37670898 2.25878906 C-9.70407527 -0.25208464 -5.16684097 -0.02378048 0 0 Z " fill="#D60000" transform="translate(686.376708984375,345.7412109375)"/>
<path d="M0 0 C3.31168966 0.00646992 6.62332524 -0.00891757 9.93499756 -0.01953125 C32.20324057 -0.03233843 54.42988073 0.95708143 76.49945068 4.06640625 C77.73010254 4.23599854 78.96075439 4.40559082 80.22869873 4.58032227 C97.5518746 7.04932906 114.60505476 10.3348042 131.29388428 15.62890625 C133.4227486 16.28822063 135.56098895 16.90100153 137.70648193 17.50390625 C146.19214408 19.89339093 154.25535361 22.63646583 162.31195068 26.25390625 C163.82846919 26.90979965 165.34543392 27.56466187 166.86273193 28.21875 C183.28382524 35.36785106 198.93399559 43.51836645 213.31195068 54.25390625 C214.19624756 54.91390625 215.08054443 55.57390625 215.99163818 56.25390625 C239.55886766 74.71606821 256.77440638 98.7491639 268.31195068 126.25390625 C268.7385498 127.2603418 268.7385498 127.2603418 269.17376709 128.28710938 C279.5156026 153.15360635 283.74751614 179.6152919 286.31195068 206.25390625 C286.39465491 207.00649113 286.47735914 207.75907602 286.56256956 208.53446651 C287.55629221 218.58724169 287.44800953 228.62721934 287.4322052 238.71685791 C287.43264172 240.79373969 287.43351813 242.87062142 287.43479437 244.94750285 C287.43702336 250.63258621 287.43303993 256.31765062 287.4280163 262.00273156 C287.42368904 268.1416373 287.42515985 274.28054202 287.42591858 280.41944885 C287.42644237 291.04824358 287.42334571 301.67703153 287.41768074 312.30582428 C287.41175683 323.44908935 287.4079134 334.59235196 287.40682793 345.73561859 C287.40675919 346.42935345 287.40669045 347.12308831 287.40661962 347.83784544 C287.40628128 351.36120044 287.4059799 354.88455544 287.40569275 358.40791044 C287.40359424 383.34176618 287.39686218 408.27561872 287.38739014 433.20947266 C287.37820076 457.42724592 287.37111957 481.64501831 287.36688232 505.86279297 C287.36668503 506.98320852 287.36668503 506.98320852 287.36648376 508.12625872 C287.3651652 515.62760664 287.36388939 523.12895456 287.3626449 530.63030249 C287.36010892 545.91041574 287.35728767 561.19052893 287.35429382 576.47064209 C287.35415653 577.17314456 287.35401924 577.87564703 287.35387779 578.59943746 C287.34468241 625.48426203 287.32819577 672.36908347 287.31195068 719.25390625 C241.44195068 719.25390625 195.57195068 719.25390625 148.31195068 719.25390625 C148.31195068 698.46390625 148.31195068 677.67390625 148.31195068 656.25390625 C145.15604831 659.40980863 143.42364589 661.49360622 141.24945068 665.19140625 C122.58765583 694.94726174 90.32364432 712.22251061 56.81195068 720.05859375 C51.06728244 721.33955544 45.29888008 722.43920619 39.49945068 723.44140625 C38.62570801 723.59617432 37.75196533 723.75094238 36.85174561 723.91040039 C19.12192925 726.80837677 1.2138501 727.58993206 -16.72247314 727.51464844 C-19.75351889 727.50389572 -22.78397396 727.51464834 -25.81500244 727.52734375 C-94.8282491 727.57608364 -158.89854511 706.74085398 -208.43804932 657.81640625 C-215.49567779 650.73345041 -221.81875656 643.34016573 -227.68804932 635.25390625 C-228.45246338 634.22265625 -229.21687744 633.19140625 -230.00445557 632.12890625 C-240.00188109 618.21944466 -247.6576034 603.25521323 -253.68804932 587.25390625 C-253.92894287 586.62468262 -254.16983643 585.99545898 -254.41802979 585.34716797 C-258.49344768 574.64813543 -261.27013901 563.93487789 -263.31304932 552.69140625 C-263.43631592 552.01940186 -263.55958252 551.34739746 -263.68658447 550.6550293 C-265.28267249 541.47697128 -265.84427976 532.26623482 -265.89117432 522.9609375 C-265.89823395 522.02006287 -265.90529358 521.07918823 -265.91256714 520.10980225 C-266.15061945 479.08277528 -261.35502838 441.90249101 -241.68804932 405.25390625 C-240.78312744 403.51753906 -240.78312744 403.51753906 -239.85992432 401.74609375 C-231.90858921 387.07955546 -221.25928705 374.20478815 -209.68804932 362.25390625 C-209.18305908 361.72313477 -208.67806885 361.19236328 -208.15777588 360.64550781 C-179.97360216 331.07380554 -143.18687582 314.78083321 -103.68804932 306.25390625 C-102.63375732 306.02574219 -102.63375732 306.02574219 -101.5581665 305.79296875 C-72.35084298 299.65928615 -42.83300083 299.83346703 -13.15023208 299.94972444 C-7.45421575 299.96875191 -1.75819225 299.97026185 3.93785095 299.97380066 C14.67505144 299.98304585 25.41215794 300.00755527 36.14931744 300.03784913 C48.39400002 300.0716306 60.63868759 300.08793823 72.88340533 300.10293543 C98.02630545 300.13411349 123.16912275 300.18672394 148.31195068 300.25390625 C148.27368045 288.68239235 148.21401257 277.11119664 148.12804794 265.5399332 C148.08876877 260.16520136 148.05648529 254.79062857 148.04095459 249.41577148 C148.02565799 244.21543017 147.99098633 239.01552672 147.94364166 233.815382 C147.9289606 231.84500909 147.92091743 229.87457362 147.92006683 227.90414619 C147.89926444 203.84741488 143.25826256 183.82624166 126.07366943 165.921875 C111.87326041 152.27925618 92.3917368 144.52165301 73.35076904 140.67480469 C71.20715135 140.23227123 69.0774573 139.74232248 66.94476318 139.25 C21.40029602 129.17155963 -46.48919666 128.84949035 -87.68804932 153.25390625 C-102.15144984 162.52171629 -113.12496772 174.49531342 -121.68804932 189.25390625 C-125.9474873 187.82895864 -128.74456617 185.74721688 -132.12554932 182.81640625 C-133.18787621 181.90842745 -134.25173984 181.00224421 -135.31695557 180.09765625 C-135.86883545 179.6284375 -136.42071533 179.15921875 -136.98931885 178.67578125 C-139.79721082 176.32551352 -142.67705845 174.06958581 -145.56304932 171.81640625 C-146.14755859 171.35951416 -146.73206787 170.90262207 -147.33428955 170.43188477 C-148.52441232 169.50243228 -149.71492435 168.57347801 -150.90582275 167.64501953 C-153.83910314 165.35545355 -156.76314178 163.05415171 -159.68804932 160.75390625 C-160.85467079 159.83718207 -162.02133748 158.92051542 -163.18804932 158.00390625 C-170.18804932 152.50390625 -177.18804932 147.00390625 -184.18804932 141.50390625 C-184.76546875 141.05023682 -185.34288818 140.59656738 -185.93780518 140.12915039 C-187.10535341 139.21175616 -188.2728338 138.29427558 -189.44024658 137.37670898 C-192.34287722 135.0954638 -195.24664205 132.81569411 -198.15289307 130.5390625 C-204.31742307 125.70714609 -210.45567078 120.84542419 -216.56304932 115.94140625 C-221.53663967 111.94840735 -226.54706361 108.03095697 -231.68804932 104.25390625 C-190.50931275 48.41304379 -132.37819669 15.63638516 -64.23468018 3.91210938 C-42.85456223 0.72007819 -21.59720385 -0.0737533 0 0 Z " fill="#93C700" transform="translate(2393.6880493164063,366.74609375)"/>
<path d="M0 0 C48.51 0 97.02 0 147 0 C161 41 161 41 166 57 C166.94402472 59.88162734 167.8927668 62.75795313 168.8671875 65.62890625 C169.36131081 67.09720041 169.85528337 68.56554531 170.34912109 70.03393555 C170.59813171 70.77267914 170.84714233 71.51142273 171.10369873 72.27255249 C174.67284433 82.86913309 178.21825542 93.45929994 181.375 104.1875 C185.11616605 116.8730492 189.50910878 129.34509645 193.85107422 141.8347168 C197.03245471 151.01918254 200.01009831 160.22804539 202.75474548 169.5524292 C205.43911994 178.60839894 208.52085711 187.51851603 211.625 196.4375 C214.84166883 205.70531886 218.02957853 214.95874106 220.86474609 224.35180664 C223.59196768 233.11586516 226.57980766 241.79875926 229.5 250.5 C236.91262508 272.58725585 236.91262508 272.58725585 239.93994141 282.59716797 C242.75562271 291.63562169 245.84746456 300.58880208 248.86108398 309.56274414 C252.03707791 319.02654736 255.18457748 328.49181798 258.1280365 338.0307312 C259.73399464 343.20982282 261.43095249 348.3556178 263.15625 353.49609375 C263.42913345 354.30923538 263.70201691 355.12237701 263.98316956 355.9601593 C265.10075927 359.28554486 266.22053298 362.61018377 267.34326172 365.93383789 C270.1994372 374.39697959 273.00638398 382.85432881 275.46875 391.44140625 C278.28738724 401.24975342 281.64901576 410.86324096 285 420.5 C288.59832798 430.84807007 292.12242856 441.1757533 295.13627625 451.71061707 C297.77017685 460.82198396 300.99157375 469.73778608 304.14770508 478.6784668 C304.95397529 480.96744021 305.75275447 483.25892336 306.55078125 485.55078125 C306.79758133 486.24238846 307.04438141 486.93399567 307.29866028 487.64656067 C308.46406423 491.00352211 309 493.39329645 309 497 C309.99 497 310.98 497 312 497 C312.26876198 495.98374542 312.26876198 495.98374542 312.54295349 494.94696045 C314.25777113 488.5494901 316.14703471 482.24190405 318.22265625 475.953125 C318.52441772 475.03116333 318.8261792 474.10920166 319.13708496 473.15930176 C320.10982737 470.18874306 321.08617335 467.21938236 322.0625 464.25 C323.07898428 461.14852442 324.09447857 458.04672596 325.10984802 454.94488525 C325.78531449 452.88143769 326.46106414 450.8180828 327.13710022 448.75482178 C330.35230696 438.93790261 333.52440986 429.10737813 336.67797852 419.27050781 C338.71344318 412.93548776 340.78832164 406.6151363 342.8984375 400.3046875 C345.74597983 391.78866564 348.53758982 383.25528254 351.30493164 374.71289062 C352.06473462 372.36810387 352.82624841 370.02387738 353.58789062 367.6796875 C355.94134919 360.42618467 358.2692495 353.16660044 360.52734375 345.8828125 C362.8349414 338.45009539 365.28283196 331.06830416 367.76339722 323.69177246 C372.56550973 309.40301576 377.27908073 295.08619745 381.9375 280.75 C382.20626953 279.92395264 382.47503906 279.09790527 382.75195312 278.24682617 C385.1633899 270.83254684 387.57063556 263.41834829 389.86891174 255.96809387 C393.11761915 245.44097473 396.72320472 235.04317363 400.34326172 224.63891602 C403.52397773 215.48580964 406.55904858 206.32773698 409.24232483 197.01573181 C411.12701065 190.48957757 413.25417293 184.05722561 415.4375 177.625 C416.31255728 175.02258099 417.1865633 172.41983841 418.05859375 169.81640625 C418.40523575 168.7820771 418.40523575 168.7820771 418.75888062 167.72685242 C421.89288242 158.35634749 424.94456111 148.95884802 428 139.5625 C428.29881073 138.64391205 428.59762146 137.7253241 428.90548706 136.77890015 C431.91655719 127.5201521 434.9201216 118.2590118 437.90625 108.9921875 C438.24245361 107.94891548 438.24245361 107.94891548 438.58544922 106.88456726 C439.60174694 103.72969238 440.61649407 100.57433778 441.62890625 97.41821289 C445.37828052 85.75265302 449.27218293 74.1359696 453.17687988 62.52168274 C454.39061243 58.91091098 455.6023855 55.29948588 456.8125 51.6875 C457.0677948 50.92550293 457.3230896 50.16350586 457.58612061 49.37841797 C461.64336191 37.24920298 465.53077074 25.07678129 469.23364258 12.8347168 C469.57161865 11.72394775 469.90959473 10.61317871 470.2578125 9.46875 C470.5480127 8.50388672 470.83821289 7.53902344 471.13720703 6.54492188 C472 4 472 4 474 0 C522.51 0 571.02 0 621 0 C619.89538808 6.62767154 619.89538808 6.62767154 618.3125 10.1875 C616.2194556 15.20319549 614.60047769 20.31226205 613 25.5 C611.20594916 31.29749368 609.31428725 36.95574386 606.97265625 42.55859375 C605.58332041 46.0458825 604.43473629 49.60433927 603.26611328 53.1706543 C601.02212073 59.99360463 598.66499311 66.77632352 596.3125 73.5625 C593.58818218 81.42601206 590.88742551 89.29564502 588.26953125 97.1953125 C588.04668961 97.86737228 587.82384796 98.53943207 587.59425354 99.2318573 C586.524449 102.46165933 585.45935458 105.69288521 584.3996582 108.92602539 C582.73064027 113.98309762 581.0491637 118.99935301 579.0234375 123.92578125 C576.59140413 129.85518368 574.63241433 135.93955974 572.64434814 142.02825928 C570.96828871 147.15709323 569.26650495 152.27753533 567.57006836 157.3996582 C567.14551098 158.68348956 566.72202214 159.96767474 566.29956055 161.25219727 C564.02882973 168.15309693 561.66607175 174.97385221 558.90454102 181.69604492 C557.38636456 185.56298992 556.20262525 189.5259835 555 193.5 C553.22337133 199.25747948 551.34046571 204.86346091 548.99609375 210.41796875 C547.65599336 213.89171916 546.58401801 217.44033028 545.5 221 C544.17766972 225.34223323 542.8292796 229.62647861 541.0625 233.8125 C539.04991948 238.61173048 537.53610938 243.53326223 536 248.5 C534.23951122 254.19121178 532.38242529 259.72826014 530.0625 265.21875 C528.22729015 270.02268166 526.77039751 274.95433866 525.28125 279.875 C524.0751311 283.80799641 522.7760509 287.64155415 521.20703125 291.4453125 C518.00346198 299.28774738 515.40437494 307.35462834 512.6875 315.375 C511.52598316 318.79209033 510.36269644 322.20857689 509.19921875 325.625 C508.91787079 326.45188324 508.63652283 327.27876648 508.34664917 328.13070679 C506.27040621 334.22621233 504.15130253 340.30556465 502 346.375 C499.74220962 352.75105427 497.67374361 359.16588445 495.69897461 365.63476562 C494.36938461 369.94671131 492.80654614 374.08279363 491.078125 378.24609375 C488.77713443 384.12362402 486.90264543 390.1644749 484.93310547 396.15966797 C483.08813365 401.77568109 481.23354607 407.38846629 479.375 413 C478.81679565 414.69950806 478.81679565 414.69950806 478.24731445 416.43334961 C476.31835083 422.25538267 474.24737846 427.96143345 471.92431641 433.63671875 C470.4033939 437.52539541 469.20894681 441.50562988 468 445.5 C466.2299216 451.23007568 464.35742889 456.81575171 462.04296875 462.3515625 C459.74415186 468.18900764 457.89074546 474.2006979 455.93310547 480.15966797 C454.08813365 485.77568109 452.23354607 491.38846629 450.375 497 C449.81679565 498.69950806 449.81679565 498.69950806 449.24731445 500.43334961 C447.31835083 506.25538267 445.24737846 511.96143345 442.92431641 517.63671875 C441.4033939 521.52539541 440.20894681 525.50562988 439 529.5 C437.2281715 535.23574106 435.354559 540.82691372 433.03515625 546.3671875 C431.69980446 549.76351619 430.5711124 553.22016381 429.4375 556.6875 C426.8728474 564.52553941 424.12664176 572.29340892 421.34405518 580.05621338 C417.21622011 591.57357749 413.25025638 603.11452321 409.63720703 614.80688477 C407.9562172 620.20714591 406.07514819 625.44556454 403.9309082 630.67895508 C402.57772471 634.0528642 401.43590944 637.48162315 400.3125 640.9375 C399.80086817 642.48830993 399.28914295 644.03908905 398.77734375 645.58984375 C398.49874512 646.43788574 398.22014648 647.28592773 397.93310547 648.15966797 C396.08813365 653.77568109 394.23354607 659.38846629 392.375 665 C391.81679565 666.69950806 391.81679565 666.69950806 391.24731445 668.43334961 C389.31835083 674.25538267 387.24737846 679.96143345 384.92431641 685.63671875 C383.4033939 689.52539541 382.20894681 693.50562988 381 697.5 C379.2299216 703.23007568 377.35742889 708.81575171 375.04296875 714.3515625 C372.74415186 720.18900764 370.89074546 726.2006979 368.93310547 732.15966797 C367.08813365 737.77568109 365.23354607 743.38846629 363.375 749 C362.81679565 750.69950806 362.81679565 750.69950806 362.24731445 752.43334961 C360.31835083 758.25538267 358.24737846 763.96143345 355.92431641 769.63671875 C354.4033939 773.52539541 353.20894681 777.50562988 352 781.5 C350.2299216 787.23007568 348.35742889 792.81575171 346.04296875 798.3515625 C343.74415186 804.18900764 341.89074546 810.2006979 339.93310547 816.15966797 C338.08813365 821.77568109 336.23354607 827.38846629 334.375 833 C333.81679565 834.69950806 333.81679565 834.69950806 333.24731445 836.43334961 C331.30635527 842.2915879 329.24535141 848.05438862 326.90673828 853.765625 C326.08945816 855.77955814 325.31998954 857.80107452 324.578125 859.84375 C316.131311 883.09733206 305.59738419 905.93496434 291 926 C290.58314941 926.57766113 290.16629883 927.15532227 289.73681641 927.75048828 C261.32843772 966.67246 218.09427541 987.06723913 171.3125 994.6875 C170.5896582 994.80689941 169.86681641 994.92629883 169.12207031 995.04931641 C141.68518784 999.26427545 111.7215517 997 85 997 C85 952.78 85 908.56 85 863 C110.245 862.505 110.245 862.505 136 862 C162.34570558 855.73555622 162.34570558 855.73555622 184 841 C184.76570313 840.32453125 185.53140625 839.6490625 186.3203125 838.953125 C200.0177663 826.23074418 205.85870527 808.99965882 211.23828125 791.640625 C212.79178429 786.62932489 214.43908156 781.65551478 216.125 776.6875 C218.2347389 770.437922 220.14829768 764.15526779 221.96533203 757.81518555 C223.80504192 751.48475976 225.89226726 745.24556804 228 739 C230.52881647 731.50183991 232.9592276 724.00099083 235.12792969 716.39086914 C236.28639248 712.35041268 237.52263336 708.34457187 238.82421875 704.34765625 C239.14253662 703.36812988 239.46085449 702.38860352 239.78881836 701.37939453 C240.4123976 699.47080173 241.04177627 697.56409026 241.67797852 695.65966797 C244.41360232 687.27370121 245.89585901 681.10591315 242.75 672.5 C242.31171875 671.2728125 241.8734375 670.045625 241.421875 668.78125 C240.95080123 667.51975241 240.47685782 666.25932256 240 665 C236.79228054 656.52573828 233.78084178 647.9837595 230.75976562 639.44140625 C228.58045039 633.31022196 226.32456364 627.23487515 223.87329102 621.20751953 C222.59185841 617.96829291 221.51252506 614.68877363 220.4375 611.375 C218.42027539 605.22704954 216.25113511 599.18033295 213.8828125 593.16015625 C211.12763232 586.1010766 208.62674677 579.01192162 206.30859375 571.80078125 C205.35683475 568.93633066 204.26879739 566.15020432 203.12890625 563.35546875 C200.23792121 556.22040125 197.83221208 548.91934064 195.35546875 541.6328125 C193.34775468 535.76835561 191.23401605 529.98639708 188.89306641 524.24707031 C187.60076012 520.99546096 186.51731596 517.70354162 185.4375 514.375 C184.01528894 510.0011181 182.51807941 505.67930207 180.88598633 501.37939453 C179.78997351 498.43595531 178.74232667 495.47684731 177.6953125 492.515625 C177.06689453 490.74058594 177.06689453 490.74058594 176.42578125 488.9296875 C175.56437121 486.49290594 174.70496812 484.05541391 173.84765625 481.6171875 C171.84428997 475.96855231 169.7812083 470.38257538 167.43359375 464.8671875 C164.93170962 458.96932898 162.89981949 452.97038119 160.9375 446.875 C158.79526485 440.2489182 156.54965068 433.7330112 153.9128418 427.28662109 C152.60978849 424.02254051 151.52212004 420.71835023 150.4375 417.375 C148.75259855 412.19323751 146.94304254 407.08847824 145 402 C139.17747422 386.67024556 139.17747422 386.67024556 136.9375 379.75 C135.71110165 375.98570792 134.33651229 372.3763138 132.75 368.75 C129.81992682 361.88040769 127.56159947 354.81005587 125.23461914 347.71777344 C120.07365866 332.0500975 114.38977133 316.56121089 108.53515625 301.140625 C105.82851153 294.00022983 103.23666163 286.84836234 100.859375 279.58984375 C99.37245627 275.10881141 97.67465361 270.71798409 95.94921875 266.32421875 C93.1504652 259.14956388 90.54531168 251.926731 88.01538086 244.65380859 C85.37887929 237.07465562 82.71932051 229.50382604 80.04229736 221.93890381 C79.5617945 220.58001743 79.08207817 219.22085263 78.60321045 217.86138916 C76.15492802 210.91187663 73.64446364 204.00603929 70.86450195 197.18115234 C69.58439673 193.95142626 68.50964245 190.67988794 67.4375 187.375 C65.75259855 182.19323751 63.94304254 177.08847824 62 172 C58.82121984 163.63079373 55.67005587 155.2815913 52.95703125 146.74609375 C52.01544861 143.9268369 52.01544861 143.9268369 50.67578125 140.99609375 C48.21181022 135.34435542 46.3562431 129.45834084 44.375 123.625 C43.48807133 121.02912435 42.59818067 118.43427324 41.70703125 115.83984375 C41.48242722 115.18585098 41.25782318 114.53185822 41.02641296 113.85804749 C38.76192918 107.28078859 36.42377991 100.73060367 34.0625 94.1875 C33.51505127 92.66987061 33.51505127 92.66987061 32.95654297 91.12158203 C30.53817613 84.43975745 28.05725249 77.78384829 25.53515625 71.140625 C22.82851153 64.00022983 20.23666163 56.84836234 17.859375 49.58984375 C16.35253856 45.04878667 14.62919213 40.60038417 12.87890625 36.1484375 C10.57435654 30.24706722 8.40566256 24.33271716 6.4375 18.3125 C4.71019977 13.03767494 2.83739143 7.87928539 0.69921875 2.7578125 C0 1 0 1 0 0 Z " fill="#0E99DA" transform="translate(2739,376)"/>
<path d="M0 0 C1.14055344 -0.00671722 2.28110687 -0.01343445 3.45622253 -0.02035522 C7.22094088 -0.0393303 10.98548097 -0.04325898 14.75024414 -0.04541016 C17.37048923 -0.05183755 19.9907336 -0.05856586 22.61097717 -0.06558228 C28.1010148 -0.07835464 33.59100421 -0.08134895 39.08105469 -0.08007812 C45.41593403 -0.0788764 51.75047287 -0.09999025 58.08526605 -0.13156545 C64.19351404 -0.16092018 70.30159918 -0.16805292 76.40991402 -0.16685867 C79.0026444 -0.169218 81.59537733 -0.17806006 84.18806267 -0.19352341 C87.81446458 -0.21312994 91.43999007 -0.20736565 95.06640625 -0.1953125 C96.66959717 -0.21217102 96.66959717 -0.21217102 98.30517578 -0.22937012 C104.63299244 -0.17595621 108.44068729 0.54575485 113.59790039 4.29052734 C117.45641715 8.35212394 118.36807304 10.99225386 118.91040039 16.41552734 C118.07746229 26.74395983 111.65311267 36.87802256 107.34790039 46.22802734 C106.6374359 47.77592263 105.92723613 49.32393943 105.21728516 50.87207031 C103.7444526 54.083163 102.27049367 57.29373481 100.7956543 60.50390625 C97.36632111 67.97021414 93.95077236 75.44282543 90.53540039 82.91552734 C90.20620605 83.63570038 89.87701172 84.35587341 89.5378418 85.09786987 C87.22334118 90.16154733 84.91005582 95.22577862 82.59790039 100.29052734 C82.11066498 101.35781067 82.11066498 101.35781067 81.61358643 102.44665527 C74.23466764 118.61340817 66.88058405 134.78903978 59.71606445 151.05224609 C56.72419803 157.82710798 53.62879 164.54912732 50.48608398 171.25488281 C47.01260972 178.6687365 43.59072154 186.10663927 40.16040039 193.54052734 C39.77250336 194.38101624 39.38460632 195.22150513 38.98495483 196.08746338 C27.87276541 220.16976703 16.85812551 244.29614704 5.89727783 268.44766235 C1.89469775 277.265794 -2.14005825 286.06784666 -6.21459961 294.85302734 C-11.34469947 305.91786221 -16.34682928 317.03824217 -21.33959961 328.16552734 C-27.02597408 340.83809479 -32.77069357 353.47738837 -38.64672852 366.06323242 C-42.72320202 374.80245161 -46.73125888 383.57110091 -50.71459961 392.35302734 C-51.02618011 393.03992645 -51.33776062 393.72682556 -51.65878296 394.43453979 C-51.9713504 395.12363434 -52.28391785 395.81272888 -52.60595703 396.52270508 C-53.24241191 397.9257902 -53.87888662 399.32886633 -54.51538086 400.73193359 C-54.99218544 401.78304573 -54.99218544 401.78304573 -55.47862244 402.85539246 C-59.10304268 410.84142347 -62.75254955 418.8159577 -66.40209961 426.79052734 C-71.98421661 438.9886687 -77.54340799 451.19699259 -83.08679199 463.41278076 C-87.89208099 473.99956181 -92.74019806 484.56556365 -97.63549805 495.11108398 C-98.31660645 496.58049438 -98.31660645 496.58049438 -99.01147461 498.07958984 C-99.40302734 498.92215332 -99.79458008 499.7647168 -100.19799805 500.6328125 C-101.64693121 503.8309241 -103.0190375 507.06338243 -104.40209961 510.29052734 C-59.19209961 510.29052734 -13.98209961 510.29052734 32.59790039 510.29052734 C32.57469727 496.48853516 32.55149414 482.68654297 32.52758789 468.46630859 C32.51737269 459.73909431 32.50766241 451.01188434 32.50024414 442.28466797 C32.48836686 428.42275517 32.47438768 414.56086664 32.44702148 400.69897461 C32.42710225 390.60441529 32.41418743 380.50987563 32.4097234 370.41529721 C32.40711354 365.069105 32.40096927 359.72296902 32.38644028 354.37679482 C32.37287956 349.3462232 32.3686747 344.31573105 32.37168503 339.2851429 C32.37113419 337.43763548 32.36714777 335.59012545 32.35948944 333.74263382 C32.34955186 331.22194537 32.35192718 328.70155771 32.35739136 326.18086243 C32.34865283 325.08211563 32.34865283 325.08211563 32.33973777 323.96117193 C32.37230182 318.41047726 33.23020133 314.93176622 36.78540039 310.66552734 C43.0690179 305.35936145 48.70246023 304.85207203 56.62890625 304.91821289 C58.10346031 304.91273689 58.10346031 304.91273689 59.60780334 304.90715027 C62.8429618 304.89907397 66.07761474 304.91263192 69.31274414 304.92724609 C71.57043965 304.92776509 73.82813562 304.92724586 76.08583069 304.92573547 C80.81249762 304.92582507 85.53899355 304.93622816 90.265625 304.9543457 C96.31251934 304.97701914 102.35916369 304.97757784 108.40608883 304.97082806 C113.06704413 304.96747998 117.72794285 304.97413422 122.38888741 304.98395729 C124.6179328 304.98779607 126.84698451 304.98896301 129.07603264 304.98737144 C132.19664279 304.98699893 135.31693743 304.9996738 138.4375 305.01586914 C139.80852371 305.01215302 139.80852371 305.01215302 141.20724487 305.00836182 C147.34781271 305.05900026 153.81427777 305.17058147 158.87524414 309.02490234 C159.4230957 309.69005859 159.97094727 310.35521484 160.53540039 311.04052734 C161.10129883 311.69537109 161.66719727 312.35021484 162.25024414 313.02490234 C165.14810468 317.89666789 164.74054827 323.66805393 164.71815491 329.18722534 C164.71943654 330.35260226 164.71943654 330.35260226 164.72074407 331.54152215 C164.72238614 334.13480153 164.71689842 336.72801568 164.71142578 339.32128906 C164.71114361 341.18421934 164.71130223 343.04714974 164.71186829 344.91007996 C164.71215509 349.96122621 164.70627727 355.0123487 164.69929433 360.06348944 C164.69304131 365.34458133 164.69245545 370.62567377 164.69126892 375.9067688 C164.68816136 385.9045018 164.6799557 395.90222387 164.66991943 405.89995205 C164.65874046 417.28318632 164.65324334 428.6664211 164.648224 440.04965949 C164.63777263 463.46328817 164.6201843 486.87690715 164.59790039 510.29052734 C165.80325439 510.27481689 167.0086084 510.25910645 168.25048828 510.24291992 C172.74374651 510.18841547 177.23697579 510.15410282 181.73046875 510.12573242 C183.67127403 510.11069243 185.61204559 510.0902552 187.55273438 510.06420898 C190.35042671 510.02761439 193.14766772 510.01075286 195.94555664 509.99755859 C196.80625259 509.98207474 197.66694855 509.96659088 198.5537262 509.95063782 C205.3695269 509.94875513 210.02335797 511.17368135 215.41040039 515.60302734 C220.03642162 521.28642486 219.89136903 527.22937497 219.87255859 534.22387695 C219.87766953 535.20837326 219.88278046 536.19286957 219.88804626 537.2071991 C219.90191447 540.45248541 219.90098763 543.69755872 219.89868164 546.94287109 C219.90256992 549.20439228 219.90690486 551.46591274 219.91166687 553.72743225 C219.919123 558.46422698 219.91884205 563.20094716 219.91357422 567.93774414 C219.90777866 574.00162637 219.92471586 580.06520325 219.94791889 586.129035 C219.96266451 590.79852578 219.96352682 595.46794314 219.96040916 600.13745308 C219.9609219 602.37291634 219.96615062 604.60838375 219.97622108 606.84382439 C219.98858475 609.97201148 219.981794 613.0996053 219.97021484 616.2277832 C219.97785858 617.14696533 219.98550232 618.06614746 219.99337769 619.01318359 C219.93995931 625.55649302 218.92001632 630.32782771 214.78540039 635.60302734 C209.34175326 639.80241228 203.37543988 639.56201486 196.82446289 639.48583984 C195.90071869 639.48300995 194.97697449 639.48018005 194.02523804 639.4772644 C191.09099063 639.46611914 188.15705469 639.441025 185.22290039 639.41552734 C183.22681107 639.40549024 181.23071693 639.39636566 179.23461914 639.38818359 C174.3555939 639.36619831 169.47679986 639.33170751 164.59790039 639.29052734 C164.60678284 640.42312485 164.61566528 641.55572235 164.62481689 642.72264099 C164.70605298 653.41841838 164.76593789 664.11413281 164.80514908 674.81014919 C164.82598597 680.30854125 164.85423251 685.80668339 164.8996582 691.30493164 C164.94325478 696.61527512 164.9670668 701.92537884 164.97740936 707.23588753 C164.98477595 709.25760736 164.99916108 711.2793147 165.02082062 713.30093193 C165.05003814 716.14206743 165.05384874 718.98222375 165.05200195 721.82348633 C165.06638306 722.65139679 165.08076416 723.47930725 165.09558105 724.33230591 C165.04595682 731.43007045 163.18791367 737.63410347 158.16040039 742.79052734 C152.69209729 745.99148526 146.65978349 745.44443684 140.50268555 745.45166016 C139.48907455 745.45662506 138.47546356 745.46158997 137.43113708 745.46670532 C134.08307208 745.48129232 130.73505443 745.48812261 127.38696289 745.49365234 C125.05675251 745.49940591 122.72654214 745.50516361 120.39633179 745.51092529 C115.51234721 745.52142491 110.62837904 745.52727463 105.74438477 745.53076172 C99.4910477 745.53624933 93.23792804 745.56028766 86.98465919 745.58873367 C82.17191943 745.60736911 77.359232 745.61256611 72.5464592 745.6140976 C70.24121281 745.61712174 67.9359673 745.6251422 65.63075638 745.63828278 C62.40430441 745.65536452 59.17838332 745.65345778 55.9519043 745.64697266 C54.52869621 745.66079483 54.52869621 745.66079483 53.07673645 745.67489624 C46.86447212 745.6358425 41.82389185 744.93786562 36.85571289 740.86083984 C32.19976957 734.92049836 32.45355062 729.4990398 32.484375 722.27758789 C32.48422897 721.37952927 32.48408295 720.48147064 32.4839325 719.55619812 C32.48462752 716.59652262 32.49240074 713.63691056 32.50024414 710.67724609 C32.50210978 708.62172988 32.50353299 706.56621323 32.50453186 704.51069641 C32.50834557 699.10695157 32.51816609 693.70323371 32.52923584 688.29949951 C32.53947459 682.78284063 32.54403476 677.26617737 32.54907227 671.74951172 C32.55978937 660.92983842 32.57685205 650.11018513 32.59790039 639.29052734 C32.02040303 639.29128678 31.44290566 639.29204623 30.84790838 639.29282868 C-3.37260557 639.3375763 -37.59311287 639.37189615 -71.81364969 639.392658 C-75.92174633 639.39515944 -80.02984291 639.39774808 -84.13793945 639.40039062 C-84.95579404 639.40091525 -85.77364862 639.40143987 -86.61628668 639.40198039 C-99.86215521 639.41068508 -113.10800639 639.42645541 -126.35386463 639.44483294 C-139.94342164 639.46353019 -153.53296957 639.4746437 -167.12253892 639.47870433 C-175.50929786 639.48144975 -183.89600776 639.49012374 -192.2827516 639.50636028 C-198.03237791 639.516925 -203.78197883 639.52012913 -209.53161414 639.5175301 C-212.84978243 639.51624801 -216.16784681 639.51931589 -219.48600388 639.52893829 C-223.0835624 639.53886121 -226.68090968 639.53650576 -230.2784729 639.53103638 C-231.85143708 639.5397749 -231.85143708 639.5397749 -233.45617831 639.54868996 C-239.86927467 639.5222644 -244.93035244 639.30241458 -250.08959961 635.10302734 C-255.24409351 628.83404828 -255.84758514 623.27119397 -255.82202148 615.43066406 C-255.83049103 614.46541306 -255.83896057 613.50016205 -255.84768677 612.50566101 C-255.87100825 609.32704335 -255.87207969 606.14891148 -255.87084961 602.97021484 C-255.87795658 600.74691578 -255.88565636 598.52361855 -255.8939209 596.30032349 C-255.90735645 591.64173284 -255.90893969 586.98331161 -255.90307617 582.32470703 C-255.89719602 576.38342607 -255.92770692 570.44296677 -255.96819305 564.50184441 C-255.99417564 559.908434 -255.99693761 555.31521829 -255.99330139 550.72174454 C-255.99498429 548.53309193 -256.00454591 546.34442951 -256.02244568 544.15584946 C-256.11002402 532.11925365 -255.96515476 522.20763648 -250.40209961 511.29052734 C-249.80197816 509.88025063 -249.20980931 508.46654085 -248.62866211 507.04833984 C-245.59461378 500.16623022 -242.51438981 493.31348782 -239.31323242 486.50683594 C-236.42794963 480.36965851 -233.60083901 474.20622758 -230.77709961 468.04052734 C-230.32173828 467.04666016 -229.86637695 466.05279297 -229.3972168 465.02880859 C-225.03983218 455.5114464 -220.69585797 445.98971888 -216.46459961 436.41552734 C-213.68798916 430.14861859 -210.8529928 423.91310182 -207.96459961 417.69677734 C-206.07474061 413.57688473 -204.23656375 409.43531287 -202.40209961 405.29052734 C-200.10713746 400.10529331 -197.79159817 394.93314382 -195.40209961 389.79052734 C-190.53741061 379.30765132 -185.85268552 368.74187519 -181.33959961 358.10302734 C-179.03416118 352.68836248 -176.58850415 347.35688188 -174.07763672 342.03588867 C-171.93911076 337.48734306 -169.89967471 332.90255108 -167.90209961 328.29052734 C-165.37458407 322.45671392 -162.73878851 316.68529176 -160.02709961 310.93505859 C-157.90669231 306.41972698 -155.88522652 301.86765508 -153.90209961 297.29052734 C-151.3745044 291.45674733 -148.73878968 285.68529423 -146.02709961 279.93505859 C-143.90668857 275.41971901 -141.88547664 270.86755126 -139.90209961 266.29052734 C-137.45681178 260.65420646 -134.92841277 255.06635531 -132.31274414 249.50634766 C-129.42824203 243.36904157 -126.6007505 237.20603432 -123.77709961 231.04052734 C-123.32173828 230.04666016 -122.86637695 229.05279297 -122.3972168 228.02880859 C-118.03983218 218.5114464 -113.69585797 208.98971888 -109.46459961 199.41552734 C-106.68798916 193.14861859 -103.8529928 186.91310182 -100.96459961 180.69677734 C-99.07474061 176.57688473 -97.23656375 172.43531287 -95.40209961 168.29052734 C-93.10713746 163.10529331 -90.79159817 157.93314382 -88.40209961 152.79052734 C-83.53741061 142.30765132 -78.85268552 131.74187519 -74.33959961 121.10302734 C-72.03416118 115.68836248 -69.58850415 110.35688188 -67.07763672 105.03588867 C-64.93911076 100.48734306 -62.89967471 95.90255108 -60.90209961 91.29052734 C-58.37458407 85.45671392 -55.73878851 79.68529176 -53.02709961 73.93505859 C-50.90669231 69.41972698 -48.88522652 64.86765508 -46.90209961 60.29052734 C-44.37478026 54.45738403 -41.74113951 48.68565901 -39.02709961 42.93725586 C-36.89636704 38.40409853 -34.88492593 33.827498 -32.90209961 29.22802734 C-30.619028 23.9749139 -28.27682979 18.75700399 -25.77709961 13.60302734 C-25.24858398 12.50603516 -24.72006836 11.40904297 -24.17553711 10.27880859 C-21.75116438 6.19368715 -19.32985961 3.17137738 -14.94822693 1.16928101 C-9.94597501 -0.0703099 -5.13562667 -0.00434695 0 0 Z " fill="#393939" transform="translate(4134.402099609375,356.70947265625)"/>
<path d="M0 0 C45.54 0 91.08 0 138 0 C138.00808685 10.17707291 138.01617371 20.35414581 138.02450562 30.83961487 C138.03006035 37.74452212 138.03562423 44.64942935 138.04124451 51.55433655 C138.04197454 52.45131504 138.04270458 53.34829353 138.04345674 54.27245319 C138.09183552 113.66950883 138.14257702 173.0665614 138.20132446 232.46360779 C138.20245809 233.61047303 138.20359171 234.75733827 138.20475969 235.938957 C138.22941119 260.86349524 138.25450407 285.78803301 138.28005161 310.71257034 C138.29257745 322.93557741 138.30500576 335.15858458 138.31738281 347.3815918 C138.3192328 349.20609491 138.3192328 349.20609491 138.32112016 351.06745667 C138.36104923 390.49158104 138.39453814 429.91570768 138.42468691 469.33984064 C138.45570299 509.85363437 138.49321711 550.367417 138.53890612 590.88119697 C138.54535651 596.60363317 138.55173262 602.32606945 138.55806351 608.04850578 C138.55931181 609.17476208 138.56056012 610.30101838 138.56184625 611.46140365 C138.58174857 629.59018517 138.59480199 647.71896546 138.60529328 665.8477546 C138.61598704 684.07380036 138.63389844 702.29982771 138.65916704 720.52585918 C138.67396 731.35391284 138.68322917 742.18193833 138.68456683 753.01000218 C138.68600656 760.24683563 138.69467123 767.48363736 138.70915592 774.72045638 C138.71719912 778.84151248 138.72215289 782.96250635 138.71827881 787.08356995 C138.71480917 790.84052655 138.72064694 794.59735481 138.73358065 798.3542897 C138.73805917 800.32584348 138.73290143 802.29741219 138.72722733 804.26896289 C138.80388318 819.81147413 139.69114971 837.03615598 150.83203125 848.9609375 C172.69393564 870.15319798 212.65016211 862.53909386 238 863 C238 907.22 238 951.44 238 997 C225.5425 997.04125 213.085 997.0825 200.25 997.125 C196.35993164 997.14320801 192.46986328 997.16141602 188.46191406 997.18017578 C183.60107422 997.18920898 183.60107422 997.18920898 181.30413818 997.19088745 C179.74667202 997.19389895 178.1892096 997.20080332 176.6317749 997.21115112 C160.13773661 997.31497261 143.74343534 996.15842112 127.5625 992.8125 C125.99483887 992.48995239 125.99483887 992.48995239 124.39550781 992.16088867 C100.47934775 987.01967592 77.70316481 977.60808367 58 963 C57.38511719 962.54447754 56.77023437 962.08895508 56.13671875 961.61962891 C36.32866515 946.78922025 21.41004036 928.47052117 13.0703125 904.96484375 C12.29199113 902.80883674 11.41912312 900.68625515 10.4921875 898.58984375 C-1.55060437 869.61778686 -0.31064131 835.42349851 -0.24453239 804.6992288 C-0.23755833 800.39807607 -0.24242532 796.09693232 -0.24568737 791.79577738 C-0.24980379 784.2827208 -0.24660096 776.76969614 -0.23841095 769.2566433 C-0.22626711 758.08527147 -0.22574614 746.91391947 -0.22749493 735.74254224 C-0.23011396 716.9442758 -0.22347336 698.14602349 -0.21146011 679.34776115 C-0.19960501 660.74908312 -0.19192398 642.15041098 -0.18975449 623.5517292 C-0.18961701 622.39307544 -0.18947953 621.23442167 -0.18933788 620.04065719 C-0.18866117 614.15586357 -0.18805842 608.27106994 -0.18748413 602.38627631 C-0.1832891 560.76052461 -0.1698306 519.13478058 -0.15087891 477.5090332 C-0.13249486 437.08325237 -0.11833508 396.65747364 -0.10986328 356.23168945 C-0.10960023 354.98445281 -0.10933718 353.73721617 -0.10906615 352.45218447 C-0.106429 339.92632924 -0.10387738 327.400474 -0.10138843 314.87461875 C-0.09631671 289.36054996 -0.09067421 263.84648131 -0.08468628 238.33241272 C-0.0844117 237.15945074 -0.08413712 235.98648876 -0.08385422 234.77798248 C-0.06960681 174.1317864 -0.0468864 113.48559387 -0.0222168 52.83940125 C-0.02186999 51.98668678 -0.02152318 51.13397232 -0.02116586 50.25541803 C-0.01433742 33.50361192 -0.0071328 16.75180599 0 0 Z " fill="#FEC801" transform="translate(1855,89)"/>
<path d="M0 0 C1.03326416 -0.00671722 2.06652832 -0.01343445 3.13110352 -0.02035522 C6.53870482 -0.03931663 9.94610903 -0.04325826 13.35375977 -0.04541016 C15.72738221 -0.05183846 18.10100385 -0.05856685 20.47462463 -0.06558228 C25.44680621 -0.07754975 30.41891832 -0.08126354 35.39111328 -0.08007812 C41.75773141 -0.07987476 48.12390403 -0.10719756 54.49041653 -0.14162254 C59.39152569 -0.1638726 64.29252722 -0.16791627 69.19368172 -0.16685867 C71.54079794 -0.16921668 73.88791703 -0.1780514 76.23498344 -0.19352341 C79.51895158 -0.21314784 82.80195336 -0.20735895 86.0859375 -0.1953125 C87.05187332 -0.20655151 88.01780914 -0.21779053 89.01301575 -0.22937012 C95.08334327 -0.17286757 98.63081436 0.75947563 103.60766602 4.29052734 C108.17355617 8.97657251 108.73209058 13.14748698 108.73416585 19.5020408 C108.73692559 20.53950005 108.73968533 21.5769593 108.74252871 22.64585671 C108.73944573 24.349055 108.73944573 24.349055 108.73630047 26.08666134 C108.73805351 27.30119691 108.73980654 28.51573249 108.7416127 29.76707217 C108.74547351 33.15008745 108.74483896 36.53304861 108.74233493 39.91606166 C108.74070428 43.59207062 108.74484066 47.26807377 108.74824411 50.94408089 C108.75340338 57.39071434 108.7548144 63.83734029 108.75378799 70.2839756 C108.75226543 79.87024944 108.75641956 89.45651494 108.76166262 99.04278716 C108.77134337 117.15797029 108.77414712 135.27315059 108.77471968 153.388336 C108.77517884 167.3741516 108.77723516 181.35996609 108.7804203 195.34578133 C108.78131781 199.36837977 108.78220763 203.39097822 108.78309518 207.41357666 C108.78342675 208.91352051 108.78342675 208.91352051 108.78376502 210.44376626 C108.7899208 238.57780583 108.79386542 266.71184501 108.79342175 294.84588528 C108.79339838 296.4375794 108.79339838 296.4375794 108.79337454 298.06142896 C108.79329143 303.43995289 108.79319239 308.81847681 108.79308983 314.19700073 C108.79306988 315.26523959 108.79304994 316.33347845 108.79302939 317.43408818 C108.79298895 319.59432741 108.79294715 321.75456665 108.792904 323.91480588 C108.79229104 357.53557478 108.79980087 391.1563336 108.81347656 424.77709961 C108.82882623 462.52897391 108.83744348 500.28084158 108.83651334 538.03271919 C108.83643871 542.055632 108.83639 546.07854479 108.83635902 550.1014576 C108.83634737 551.09203945 108.83633572 552.08262131 108.83632371 553.10322079 C108.83629289 569.06606984 108.84268728 585.02891015 108.85129129 600.9917566 C108.8597546 617.02478346 108.8607681 633.05779751 108.85418197 649.09082537 C108.85047761 658.62328297 108.85234502 668.15570172 108.86212431 677.68815522 C108.8681008 684.049705 108.86685495 690.41122649 108.85965381 696.77277494 C108.85575252 700.4012144 108.85505314 704.02957839 108.86311116 707.65801268 C108.87170457 711.56156325 108.86492486 715.4649991 108.85655499 719.36855221 C108.86400725 721.06823875 108.86400725 721.06823875 108.87161008 722.8022624 C108.83611693 730.57178773 108.25629102 736.48499609 102.60766602 742.29052734 C97.21129948 745.80044469 92.43347733 745.71772173 86.21533203 745.67871094 C85.18206787 745.6839679 84.14880371 745.68922485 83.08422852 745.69464111 C79.6765216 745.7078197 76.26928375 745.69910966 72.86157227 745.68896484 C70.48794973 745.69098634 68.11432781 745.69389841 65.7407074 745.69766235 C60.7684843 745.70208295 55.79642302 745.69566354 50.82421875 745.68164062 C44.45765312 745.66455845 38.09146718 745.67438578 31.7249155 745.69235802 C26.82379814 745.70321081 21.92277042 745.69974243 17.02165031 745.69197464 C14.67454928 745.6899763 12.32744005 745.69241903 9.98034859 745.6994133 C6.69647871 745.70705111 3.41321909 745.69538983 0.12939453 745.67871094 C-0.83654129 745.68478363 -1.80247711 745.69085632 -2.79768372 745.69711304 C-9.04956781 745.63843155 -14.13371427 744.96464128 -19.13452148 740.86083984 C-23.89516534 734.78691493 -23.5393538 729.13181887 -23.53099918 721.74215221 C-23.5338414 720.77063324 -23.53668362 719.79911428 -23.53961197 718.79815534 C-23.54797317 715.52340265 -23.5492283 712.24868528 -23.55055237 708.97392273 C-23.55511674 706.61022079 -23.56011658 704.24651965 -23.56551594 701.88281947 C-23.57627573 696.73380229 -23.58394502 691.58478994 -23.58891487 686.43576431 C-23.59632152 678.77933408 -23.60940483 671.12292094 -23.62366062 663.46650077 C-23.64747911 650.58760832 -23.66667995 637.70871283 -23.68325996 624.82980919 C-23.69969414 612.07587963 -23.71817402 599.32195575 -23.73939323 586.56803322 C-23.74071084 585.77538656 -23.74202845 584.9827399 -23.74338598 584.16607364 C-23.75008796 580.1407127 -23.75682655 576.11535181 -23.76357924 572.08999095 C-23.81135749 543.56952095 -23.85453815 515.04904566 -23.89501953 486.52856445 C-23.93436007 458.81925064 -23.97578032 431.10994121 -24.02001953 403.40063477 C-24.02206333 402.11972124 -24.02206333 402.11972124 -24.02414841 400.81293067 C-24.03783364 392.23738395 -24.05156119 383.6618373 -24.06531975 375.0862907 C-24.0933472 357.61651291 -24.12109217 340.14673468 -24.14866638 322.67695618 C-24.14993458 321.87370296 -24.15120278 321.07044975 -24.15250941 320.24285553 C-24.23718238 266.59208659 -24.31524995 212.94130766 -24.39233398 159.29052734 C-24.99706543 159.75164917 -25.60179688 160.212771 -26.22485352 160.68786621 C-28.9888291 162.79524545 -31.75307919 164.90226435 -34.51733398 167.00927734 C-35.46866211 167.73469727 -36.41999023 168.46011719 -37.40014648 169.20751953 C-42.95891349 173.44414925 -48.53362738 177.65667797 -54.13452148 181.83740234 C-56.81997339 183.85105504 -59.48582039 185.88964227 -62.15014648 187.93115234 C-67.55054113 192.06909113 -72.96427903 196.18893607 -78.39233398 200.29052734 C-79.24891602 200.93795898 -80.10549805 201.58539062 -80.98803711 202.25244141 C-83.40527059 204.06959245 -85.83376712 205.87033166 -88.26733398 207.66552734 C-88.98550293 208.20661133 -89.70367188 208.74769531 -90.44360352 209.30517578 C-95.54256175 213.02906634 -99.99608903 215.56222694 -106.51733398 215.04052734 C-112.2361015 213.54867495 -115.46012343 211.86039367 -119.39233398 207.29052734 C-121.0299965 203.86614186 -121.64288922 201.14505869 -121.64630127 197.36378479 C-121.65194092 196.39795471 -121.65758057 195.43212463 -121.66339111 194.43702698 C-121.65934265 193.3890947 -121.65529419 192.34116241 -121.65112305 191.26147461 C-121.65462769 190.14872162 -121.65813232 189.03596863 -121.66174316 187.88949585 C-121.67054405 184.2119116 -121.66471658 180.5345198 -121.65795898 176.85693359 C-121.6593062 174.30012475 -121.6612472 171.74331615 -121.66375732 169.18650818 C-121.66670645 163.82751796 -121.66260907 158.46859663 -121.65307617 153.10961914 C-121.64219792 146.92309567 -121.6457142 140.7367041 -121.65672898 134.55018383 C-121.66691628 128.58878777 -121.6658152 122.6274325 -121.65996552 116.66602898 C-121.65863165 114.13388996 -121.66026752 111.60174758 -121.66492462 109.0696125 C-121.67000645 105.52930935 -121.66225571 101.98925895 -121.65112305 98.44897461 C-121.65517151 97.40306656 -121.65921997 96.35715851 -121.66339111 95.27955627 C-121.62101297 88.00080682 -120.99618293 82.46702604 -115.95874023 76.80908203 C-112.87537628 73.81991062 -109.38784446 71.39546976 -105.89233398 68.91552734 C-104.18280393 67.6802026 -102.47451542 66.44315828 -100.76733398 65.20458984 C-99.88303711 64.56424805 -98.99874023 63.92390625 -98.08764648 63.26416016 C-93.63833178 60.00616558 -89.26739082 56.64720294 -84.89233398 53.29052734 C-75.91542612 46.42127003 -66.84894782 39.68400859 -57.73071289 33.00390625 C-53.80184103 30.12514004 -49.87798061 27.2395883 -45.95483398 24.35302734 C-45.18292725 23.78664551 -44.41102051 23.22026367 -43.61572266 22.63671875 C-39.36726689 19.51211622 -35.15023203 16.3518139 -30.96264648 13.14599609 C-29.61384399 12.11817017 -29.61384399 12.11817017 -28.23779297 11.06958008 C-26.50808019 9.74913892 -24.78334053 8.42214909 -23.06445312 7.08764648 C-22.2793335 6.48944092 -21.49421387 5.89123535 -20.68530273 5.27490234 C-19.99976318 4.74606445 -19.31422363 4.21722656 -18.60791016 3.67236328 C-12.64954591 -0.04381761 -6.79436179 -0.00636206 0 0 Z " fill="#393939" transform="translate(3596.392333984375,356.70947265625)"/>
<path d="M0 0 C0.89890961 0.00087616 1.79781921 0.00175232 2.72396851 0.00265503 C35.26622541 0.10689586 67.31456207 4.82708968 92.3125 27.375 C93.08207031 28.06207031 93.85164063 28.74914062 94.64453125 29.45703125 C116.05380883 49.66648942 126.11536682 80.31731401 132.3125 108.375 C132.53566895 109.3453418 132.75883789 110.31568359 132.98876953 111.31542969 C136.43494962 126.74301281 137.69845481 141.70940148 137.94140625 157.4609375 C137.97759976 159.38691396 138.01417405 161.3128833 138.05110168 163.23884583 C138.40730112 182.88702774 138.49981234 202.53720148 138.49780273 222.18823242 C138.49772081 226.12415087 138.50480181 230.05995454 138.51831055 233.99584961 C138.58343953 253.32468351 138.59708235 272.62234328 137.41796875 291.921875 C137.33918991 293.21643112 137.26041107 294.51098724 137.179245 295.84477234 C136.40018957 307.18140929 134.73975077 318.27835493 132.3125 329.375 C132.14991699 330.11975586 131.98733398 330.86451172 131.81982422 331.63183594 C130.78426558 336.25234478 129.59213677 340.81510033 128.3125 345.375 C127.96703125 346.61636719 127.6215625 347.85773438 127.265625 349.13671875 C118.30611625 380.06020546 102.99120453 409.21304475 74.25 425.75 C55.03701347 436.29897274 34.12446775 441.45579504 12.3125 442.375 C11.33941895 442.41882813 10.36633789 442.46265625 9.36376953 442.5078125 C-26.59069709 443.89045502 -57.50639533 435.82383316 -84.8125 412 C-102.5444186 395.54274009 -113.29009005 376.51505287 -120.07568359 353.37353516 C-120.7373333 351.21221651 -121.46928091 349.08178199 -122.20703125 346.9453125 C-123.69434114 342.51691697 -124.75910448 338.07493493 -125.6875 333.5 C-125.85628662 332.67105225 -126.02507324 331.84210449 -126.19897461 330.98803711 C-126.70638795 328.45241123 -127.19936674 325.91440121 -127.6875 323.375 C-127.82687988 322.66714355 -127.96625977 321.95928711 -128.10986328 321.22998047 C-130.32595092 309.7211536 -131.33757058 298.10328474 -132.3125 286.4375 C-132.3750296 285.69380157 -132.4375592 284.95010315 -132.50198364 284.18386841 C-134.29677419 262.55668696 -134.92454952 241.01447181 -134.9375 219.3125 C-134.93823643 218.64920433 -134.93897285 217.98590866 -134.9397316 217.30251312 C-134.96855559 185.30523405 -134.07371854 152.9894754 -128.6875 121.375 C-128.55794922 120.60075684 -128.42839844 119.82651367 -128.29492188 119.02880859 C-121.791815 81.55740415 -107.61015165 45.96456569 -76.6875 22.375 C-75.90890625 21.76914062 -75.1303125 21.16328125 -74.328125 20.5390625 C-64.59944272 13.32416725 -53.64902979 7.97396241 -42.0625 4.5 C-41.11588501 4.21358643 -41.11588501 4.21358643 -40.15014648 3.92138672 C-26.958994 0.25782353 -13.58266405 -0.03236685 0 0 Z " fill="#FEFEFE" transform="translate(1436.6875,509.625)"/>
<path d="M0 0 C1.71662393 0.00028291 3.43324797 0.00012211 5.14987183 -0.0004425 C9.75622635 -0.00072641 14.3625542 0.0051039 18.96890259 0.01213145 C23.80283468 0.01843334 28.63676756 0.01897415 33.47070312 0.02015686 C42.60041247 0.02325019 51.73010967 0.03143634 60.85981369 0.04150635 C71.26385453 0.05272993 81.66789598 0.0581936 92.07194138 0.06320179 C113.4516135 0.07362087 134.83127473 0.09118117 156.2109375 0.11352539 C156.25771558 9.43376654 156.2930338 18.75396598 156.31456184 28.07429981 C156.32490522 32.40423097 156.33888675 36.73408059 156.36181641 41.06396484 C156.55218889 77.97803024 156.55218889 77.97803024 154.2109375 93.11352539 C154.05650177 94.11622467 153.90206604 95.11892395 153.74295044 96.15200806 C153.37802442 98.36697381 152.94701199 100.54729951 152.4609375 102.73852539 C152.20932861 103.89481445 152.20932861 103.89481445 151.95263672 105.07446289 C147.54466893 124.36079915 139.87838912 144.45916547 122.3984375 155.48852539 C120.68679939 156.39733634 118.95640152 157.27150536 117.2109375 158.11352539 C116.29054688 158.58918945 115.37015625 159.06485352 114.421875 159.55493164 C98.10297131 167.30944791 79.14743488 171.4987436 61.2109375 173.11352539 C60.38166245 173.19182083 59.55238739 173.27011627 58.69798279 173.3507843 C43.48576446 174.77085277 28.386843 175.45940338 13.10913086 175.42919922 C9.77750126 175.42602926 6.44675622 175.44967952 3.11523438 175.47485352 C-25.12574072 175.55793652 -53.25689587 172.89741356 -78.7890625 160.11352539 C-79.82160156 159.6146582 -80.85414063 159.11579102 -81.91796875 158.60180664 C-91.21316397 153.68810158 -98.37718646 146.43769899 -105.7890625 139.11352539 C-106.70993652 138.23204834 -106.70993652 138.23204834 -107.64941406 137.33276367 C-119.58883156 125.765856 -127.59572112 108.6539578 -128.08984375 91.95336914 C-128.28565831 69.351473 -126.36176611 49.07781345 -109.98706055 32.13720703 C-108.60966269 30.77346309 -107.19983427 29.44271515 -105.7890625 28.11352539 C-105.00917969 27.37618164 -104.22929687 26.63883789 -103.42578125 25.87915039 C-96.38806103 19.77585017 -88.19179405 15.96203544 -79.7890625 12.11352539 C-78.91378906 11.70102539 -78.03851562 11.28852539 -77.13671875 10.86352539 C-66.50659082 6.21170872 -54.617885 4.30096189 -43.2265625 2.42602539 C-42.52088135 2.30670654 -41.8152002 2.1873877 -41.08813477 2.06445312 C-27.50561063 -0.04121114 -13.7091237 -0.03219784 0 0 Z " fill="#FEFEFE" transform="translate(2385.7890625,784.886474609375)"/>
<path d="M0 0 C26.4 0 52.8 0 80 0 C80 4.37242168 79.99068084 7.93735035 79.36083984 12.1328125 C79.21981339 13.08900482 79.07878693 14.04519714 78.93348694 15.03036499 C78.77754562 16.05159454 78.62160431 17.0728241 78.4609375 18.125 C78.29963852 19.20786285 78.13833954 20.29072571 77.97215271 21.40640259 C77.4446907 24.93835903 76.9099093 28.46916446 76.375 32 C76.00701459 34.45485678 75.63942337 36.90977269 75.2722168 39.36474609 C73.04330582 54.23431772 70.76359165 69.09592621 68.45004272 83.95254517 C66.33293348 97.55981146 64.40005243 111.18904171 62.55981445 124.83642578 C62.46165436 125.55926254 62.36349426 126.2820993 62.26235962 127.02684021 C61.99870499 128.97099696 61.73789418 130.91553877 61.47729492 132.86010742 C61 136 61 136 60 140 C33.6 140 7.2 140 -20 140 C-18.73386503 129.87092022 -17.46320928 119.74451648 -16.125 109.625 C-15.90263672 107.91376953 -15.90263672 107.91376953 -15.67578125 106.16796875 C-14.4715184 97.07235746 -13.08907074 88.00871268 -11.68197632 78.94244385 C-10.2201478 69.49628323 -8.81190859 60.04286941 -7.421875 50.5859375 C-7.32348454 49.916763 -7.22509407 49.2475885 -7.12372208 48.55813599 C-6.33096679 43.16397871 -5.54068749 37.76946145 -4.75 32.375 C-3.1825 21.69125 -1.615 11.0075 0 0 Z " fill="#FEFDFD" transform="translate(742,721)"/>
</svg>
