<?xml version="1.0" encoding="UTF-8"?>
<svg version="1.1" xmlns="http://www.w3.org/2000/svg" width="4800" height="1506">
<path d="M0 0 C1584 0 3168 0 4800 0 C4800 496.98 4800 993.96 4800 1506 C3216 1506 1632 1506 0 1506 C0 1009.02 0 512.04 0 0 Z " fill="#010305" transform="translate(0,0)"/>
<path d="M0 0 C36.36232512 -0.76251272 74.23333501 6.57348687 107.10546875 22.125 C108.17958008 22.62797607 108.17958008 22.62797607 109.27539062 23.14111328 C140.55976253 37.91271603 165.1468355 60.40870311 185.28125 88.2421875 C187.12540798 90.7907335 188.99628411 93.31477711 190.8984375 95.8203125 C211.14464673 122.60754993 222.29819002 152.16421622 228.10546875 185.125 C228.28706543 186.13723633 228.46866211 187.14947266 228.65576172 188.19238281 C231.3507644 203.65999094 232.69519136 219.16265324 233.73046875 234.8125 C233.78704651 235.66629242 233.84362427 236.52008484 233.9019165 237.39974976 C234.27172878 243.09873072 234.59458779 248.79959328 234.90307617 254.50219727 C235.04670759 257.07318227 235.19696636 259.64309547 235.35571289 262.21313477 C237.155876 291.48949126 237.41859326 320.71285191 237.36621094 350.0390625 C237.35490255 356.42315416 237.36154769 362.80707735 237.37309265 369.19116306 C237.41334749 395.5104271 237.15099658 421.79457381 236.18359375 448.09765625 C236.14262825 449.2225861 236.10166275 450.34751595 236.05945587 451.50653458 C232.97493095 534.15240128 232.97493095 534.15240128 221.10546875 571.125 C220.86489746 571.89553711 220.62432617 572.66607422 220.37646484 573.45996094 C214.12003229 593.29546738 205.54008375 612.38102137 193.10546875 629.125 C192.68378418 629.69395996 192.26209961 630.26291992 191.82763672 630.84912109 C188.98236687 634.65826789 186.05637877 638.39727758 183.10546875 642.125 C182.450625 642.97449219 181.79578125 643.82398438 181.12109375 644.69921875 C156.56498643 676.20612505 121.53006791 702.32240274 83.10546875 714.125 C81.68820215 714.62329692 80.27148317 715.12315581 78.85546875 715.625 C65.11331833 720.08739571 51.4512984 723.35280212 37.10546875 725.125 C36.26564453 725.22941406 35.42582031 725.33382812 34.56054688 725.44140625 C-1.67035856 729.74876747 -39.11401054 727.93004303 -72.89453125 713.125 C-73.49942383 712.86025879 -74.10431641 712.59551758 -74.72753906 712.32275391 C-104.80793675 699.00958738 -133.76681948 681.6007243 -157.89453125 659.125 C-159.85771142 657.41304947 -161.83103742 655.71416629 -163.8125 654.0234375 C-166.94429951 651.16780042 -169.89763024 648.12190101 -172.89453125 645.125 C-173.22453125 764.255 -173.55453125 883.385 -173.89453125 1006.125 C-219.43453125 1006.125 -264.97453125 1006.125 -311.89453125 1006.125 C-311.89453125 677.115 -311.89453125 348.105 -311.89453125 9.125 C-266.35453125 9.125 -220.81453125 9.125 -173.89453125 9.125 C-173.56453125 32.885 -173.23453125 56.645 -172.89453125 81.125 C-169.42953125 77.165 -169.42953125 77.165 -165.89453125 73.125 C-158.02829756 64.86545463 -149.97354575 57.05761705 -140.89453125 50.125 C-140.3634375 49.71217773 -139.83234375 49.29935547 -139.28515625 48.87402344 C-98.81324737 17.52221787 -50.85080026 2.19598598 0 0 Z " fill="#FE520C" transform="translate(1475.89453125,366.875)"/>
<path d="M0 0 C0.93718872 -0.00350464 1.87437744 -0.00700928 2.83996582 -0.01062012 C5.93318117 -0.0194113 9.02616715 -0.01359696 12.11938477 -0.00683594 C14.27262923 -0.00818345 16.4258734 -0.0101247 18.57911682 -0.01263428 C23.09069721 -0.0155821 27.60219836 -0.01129925 32.11376953 -0.00195312 C37.89186896 0.0094343 43.66978244 0.0028842 49.44787502 -0.00909805 C53.89428605 -0.01633168 58.34065314 -0.01402168 62.78706551 -0.00884247 C64.91728805 -0.00750978 67.04751461 -0.00914034 69.17773247 -0.01380157 C72.15765798 -0.01889067 75.13728422 -0.01112262 78.1171875 0 C78.99478226 -0.00404846 79.87237701 -0.00809692 80.77656555 -0.01226807 C87.57989532 0.03468325 93.04654521 0.97615602 98.29516602 5.72753906 C101.29175203 9.18242647 102.66546521 12.95645367 102.58149719 17.5403595 C101.73087088 25.70183842 100.65891891 33.82958279 99.54125977 41.95800781 C99.32876777 43.51685755 99.11649387 45.07573703 98.90441895 46.63464355 C98.44848577 49.98256856 97.99101093 53.33027791 97.53231812 56.67782593 C96.79881826 62.03105068 96.06889719 67.38476 95.33935547 72.73852539 C93.90415517 83.2666336 92.46497963 93.79419649 91.02502441 104.32165527 C88.91432842 119.75327373 86.80480651 135.18505252 84.69721985 150.61709595 C84.31098638 153.44485876 83.92460122 156.27260081 83.53820801 159.1003418 C80.32718908 182.6046079 77.13657684 206.11064522 74.14128113 229.64360046 C72.73797779 240.53634644 71.17742506 251.37985076 69.62329102 262.25878906 C96.02329102 262.25878906 122.42329102 262.25878906 149.62329102 262.25878906 C150.28329102 255.32878906 150.94329102 248.39878906 151.62329102 241.25878906 C152.18573576 237.1178203 152.77234732 233.00639574 153.43579102 228.88378906 C155.15908997 217.71632066 156.6473783 206.53139297 158.06079102 195.32128906 C159.65244824 182.72685456 161.29831031 170.14300774 163.06079102 157.57128906 C163.21342407 156.48208664 163.21342407 156.48208664 163.36914062 155.37088013 C163.57733798 153.88551136 163.78554938 152.40014455 163.99377441 150.91477966 C164.09838989 150.16849808 164.20300537 149.42221649 164.31079102 148.65332031 C164.41637329 147.90055313 164.52195557 147.14778595 164.6307373 146.37220764 C165.96581182 136.837835 167.26236827 127.29820869 168.56079102 117.75878906 C168.81386681 115.90120216 169.0669593 114.04361753 169.32006836 112.18603516 C170.4753064 103.70504835 171.6282976 95.22375971 172.77844238 86.74208069 C174.02671271 77.53737699 175.28025928 68.33342557 176.54431152 59.13087463 C177.14171672 54.78053486 177.73623947 50.42984871 178.32348633 46.078125 C178.87408666 41.99894517 179.43293134 37.92097822 179.99801636 33.84378052 C180.20297001 32.35467198 180.40500269 30.86515783 180.60379028 29.37521362 C183.49698457 7.72781494 183.49698457 7.72781494 190.62329102 2.25878906 C195.84969385 -0.00575881 200.63208588 -0.02551147 206.22119141 0 C207.16988602 -0.00350464 208.11858063 -0.00700928 209.09602356 -0.01062012 C212.22107331 -0.01939781 215.34589535 -0.01360269 218.47094727 -0.00683594 C220.64757836 -0.00818361 222.82420917 -0.010125 225.00083923 -0.01263428 C229.55771761 -0.01558008 234.11451748 -0.01130491 238.67138672 -0.00195312 C244.51121034 0.00944781 250.35085025 0.00287436 256.19066715 -0.00909805 C260.6833586 -0.0163255 265.1760065 -0.01402475 269.66869926 -0.00884247 C271.82207702 -0.00750878 273.97545873 -0.00914387 276.12883186 -0.01380157 C279.13758954 -0.01888201 282.14604964 -0.01113535 285.15478516 0 C286.48823975 -0.00607269 286.48823975 -0.00607269 287.84863281 -0.01226807 C293.8636112 0.02896042 297.75118456 0.51729468 302.31079102 4.75878906 C303.07391602 5.58378906 303.83704102 6.40878906 304.62329102 7.25878906 C305.28329102 7.91878906 305.94329102 8.57878906 306.62329102 9.25878906 C308.55436594 17.36930375 307.4890431 25.37550269 306.30981445 33.50073242 C306.16993607 34.4956218 306.03005768 35.49051117 305.88594055 36.51554871 C305.42356736 39.79403145 304.95324686 43.07131892 304.48266602 46.34863281 C304.15552375 48.65379465 303.82880997 50.95901734 303.50250244 53.26429749 C302.81651386 58.10238972 302.12686069 62.9399401 301.43432617 67.77709961 C300.55731114 73.90330902 299.68692783 80.03043521 298.81908798 86.1579504 C298.14314607 90.92793054 297.464738 95.69755735 296.78553009 100.46707344 C296.46460534 102.72108014 296.14412766 104.97515056 295.82415009 107.22929192 C294.18549592 118.75716551 292.48400653 130.26974397 290.62109375 141.76367188 C288.762559 153.23255325 287.07738503 164.72118059 285.45299721 176.22535133 C284.97144318 179.63545631 284.4870353 183.04514638 284.0019989 186.45475769 C282.97750994 193.65992582 281.95641239 200.86557221 280.93579102 208.07128906 C279.74102221 216.50570497 278.54482977 224.93991434 277.34514427 233.37363243 C276.8686965 236.72816066 276.39478088 240.0830403 275.92097473 243.4379425 C275.63087058 245.47956055 275.34064983 247.52116202 275.05029297 249.56274414 C274.91991135 250.49091446 274.78952972 251.41908478 274.65519714 252.37538147 C274.53339081 253.2282373 274.41158447 254.08109314 274.28608704 254.95979309 C274.18158895 255.69794156 274.07709085 256.43609003 273.96942616 257.19660664 C273.62425228 259.25306213 273.15700389 261.24380045 272.62329102 263.25878906 C274.33218002 263.25212723 274.33218002 263.25212723 276.07559204 263.24533081 C286.8164966 263.20477243 297.5573856 263.17479872 308.29834938 263.15516472 C313.82026997 263.14473135 319.34212869 263.13058017 324.86401367 263.10791016 C330.19377627 263.08616604 335.52347939 263.07421708 340.85328293 263.06903458 C342.88582673 263.06534166 344.91836731 263.05813032 346.95088577 263.04732895 C349.79960392 263.03279331 352.64807685 263.030812 355.49682617 263.03173828 C356.33552246 263.02454773 357.17421875 263.01735718 358.03833008 263.00994873 C364.09264437 263.03122475 368.7212438 263.52965523 373.37329102 267.75878906 C374.11579102 268.58378906 374.85829102 269.40878906 375.62329102 270.25878906 C376.28329102 270.91878906 376.94329102 271.57878906 377.62329102 272.25878906 C378.89673059 276.6147001 378.77120659 281.0499707 378.76855469 285.54980469 C378.77359261 286.78243294 378.77359261 286.78243294 378.7787323 288.03996277 C378.78820849 290.74833703 378.79018354 293.45664927 378.79125977 296.16503906 C378.79447395 298.051636 378.79783815 299.93823269 378.80134583 301.8248291 C378.80732824 305.77564065 378.80918656 309.72643034 378.80859375 313.67724609 C378.80849202 318.73799564 378.8221598 323.79860524 378.83936596 328.85932159 C378.85048547 332.7540959 378.85251299 336.64883632 378.85198402 340.54362488 C378.85316361 342.40952539 378.8575842 344.27542678 378.86531639 346.14131165 C378.87511805 348.75023213 378.87223787 351.358848 378.86621094 353.96777344 C378.87183044 354.73675461 378.87744995 355.50573578 378.88323975 356.29801941 C378.84887076 362.15539427 378.12891174 365.64024679 374.12329102 369.94628906 C373.29829102 370.70941406 372.47329102 371.47253906 371.62329102 372.25878906 C370.96329102 372.91878906 370.30329102 373.57878906 369.62329102 374.25878906 C366.73292911 375.22945946 364.07637819 375.38257172 361.04217529 375.37904358 C360.127948 375.38041824 359.2137207 375.38179291 358.27178955 375.38320923 C356.77854156 375.37781631 356.77854156 375.37781631 355.25512695 375.37231445 C353.67417236 375.37253349 353.67417236 375.37253349 352.0612793 375.37275696 C348.57672062 375.37206016 345.09221536 375.36427859 341.60766602 375.35644531 C339.19199655 375.35458031 336.77632671 375.35315679 334.36065674 375.35215759 C328.00173906 375.34833892 321.64284421 375.33851414 315.28393555 375.32745361 C308.79549468 375.31722555 302.30705012 375.31265698 295.81860352 375.30761719 C283.08682294 375.29689133 270.35505819 375.28001481 257.62329102 375.25878906 C257.5683699 376.21806305 257.51344879 377.17733704 257.4568634 378.16567993 C256.98845127 385.81352944 256.34086512 393.33452859 255.13500977 400.90722656 C254.99180801 401.8397525 254.84860626 402.77227844 254.70106506 403.73306274 C254.24373347 406.70095311 253.77742349 409.66734833 253.31079102 412.63378906 C252.99092809 414.69881167 252.67159574 416.76391653 252.3527832 418.82910156 C250.5820349 430.26924169 248.76758705 441.70225274 246.90576172 453.12792969 C245.67998878 460.71445221 244.6368879 468.32042792 243.6262207 475.93823242 C242.95006633 480.99774841 242.17662032 486.00837547 241.19116211 491.01806641 C240.37142853 495.69611608 239.72338145 500.39610324 239.06079102 505.09863281 C238.9222168 506.0757019 238.78364258 507.052771 238.64086914 508.05944824 C238.30068168 510.45908952 237.96151994 512.85887108 237.62329102 515.25878906 C238.74558105 515.25212723 239.86787109 515.24546539 241.02416992 515.23860168 C251.61727119 515.17770187 262.21033679 515.13277382 272.80357361 515.10335255 C278.24925044 515.08771813 283.69478557 515.06652037 289.14038086 515.0324707 C294.39883817 514.99979811 299.65715944 514.98191932 304.91571045 514.97415733 C306.9187026 514.96862801 308.92168757 514.95783063 310.92462158 514.94159889 C313.73710025 514.9197197 316.54902175 514.91682653 319.36157227 514.91821289 C320.18372726 514.90742706 321.00588226 514.89664124 321.85295105 514.88552856 C328.68235003 514.92179086 334.25183915 516.1451037 339.49829102 520.82128906 C340.19954102 521.62566406 340.90079102 522.43003906 341.62329102 523.25878906 C342.28329102 523.91878906 342.94329102 524.57878906 343.62329102 525.25878906 C344.87011073 529.55088832 344.77124328 533.90196644 344.76855469 538.33447266 C344.77359261 539.53302132 344.77359261 539.53302132 344.7787323 540.75578308 C344.78820861 543.38961352 344.79018372 546.02338015 344.79125977 548.65722656 C344.79447458 550.49419175 344.79783882 552.33115668 344.80134583 554.16812134 C344.80732874 558.0163838 344.80918658 561.86462384 344.80859375 565.71289062 C344.80849216 570.6344405 344.82214495 575.555846 344.83936596 580.47736168 C344.85050557 584.27099259 344.85251236 588.06458881 344.85198402 591.85823441 C344.85316115 593.67224246 344.85756792 595.48625149 344.86531639 597.30024338 C344.87515619 599.84170282 344.8722226 602.38285154 344.86621094 604.92431641 C344.8746402 606.03895012 344.8746402 606.03895012 344.88323975 607.17610168 C344.84665848 613.28772084 344.26095855 618.36917268 340.18579102 623.07128906 C333.49098594 628.78636657 327.06443506 628.40501518 318.6706543 628.37231445 C317.19167412 628.37253349 317.19167412 628.37253349 315.68281555 628.37275696 C312.43638886 628.37206245 309.19002014 628.36429168 305.94360352 628.35644531 C303.68773429 628.35457949 301.43186465 628.35315636 299.17599487 628.35215759 C293.24783198 628.34834534 287.31969371 628.33852607 281.39154053 628.32745361 C275.33858574 628.31721173 269.28562697 628.31265402 263.23266602 628.30761719 C251.36286355 628.29690264 239.49307933 628.27984173 227.62329102 628.25878906 C227.50035172 629.32826782 227.37741241 630.39774658 227.25074768 631.49963379 C226.19342704 640.63259323 225.05114901 649.74706131 223.77563477 658.85253906 C223.60321762 660.09409256 223.43080048 661.33564606 223.25315857 662.61482239 C222.88316095 665.27747705 222.51254693 667.94003634 222.14080811 670.60244751 C221.54598422 674.86287421 220.95385116 679.12367254 220.36206055 683.38452148 C219.53224588 689.35754937 218.70146859 695.33044246 217.86987305 701.30322266 C215.90838904 715.39198279 213.95156471 729.48138837 211.99829102 743.57128906 C211.90467537 744.24643429 211.81105972 744.92157951 211.71460724 745.61718369 C209.23242284 763.52003129 206.77607029 781.42614914 204.37008667 799.3394165 C203.94187001 802.52605138 203.51233028 805.71250556 203.08251953 808.89892578 C201.83512982 818.15820883 200.59805714 827.41846488 199.40144348 836.6844635 C198.87726015 840.7325254 198.34466842 844.77945786 197.81088257 848.82626343 C197.56570974 850.70221155 197.32451204 852.57868462 197.08779907 854.45571899 C193.59838517 882.11108931 193.59838517 882.11108931 187.81079102 887.44628906 C181.41405189 891.08365052 175.40273486 891.55432444 168.23486328 891.53344727 C167.32010223 891.5385582 166.40534119 891.54366913 165.46286011 891.54893494 C162.45507162 891.56277428 159.44751371 891.56187852 156.43969727 891.55957031 C154.33894262 891.56346013 152.23818876 891.56779539 150.13743591 891.57255554 C145.74036099 891.58000543 141.34336639 891.57973523 136.94628906 891.57446289 C131.32307899 891.56866765 125.70019823 891.58560673 120.07704258 891.60880756 C115.74035229 891.6235677 111.40374091 891.62441353 107.06702995 891.62129784 C104.99427577 891.62180982 102.92151702 891.62702447 100.84878731 891.63710976 C97.94601395 891.649502 95.04387712 891.64266583 92.14111328 891.63110352 C91.29255264 891.63874725 90.443992 891.64639099 89.56971741 891.65426636 C83.30817912 891.59938137 77.60509681 890.64649693 72.56469727 886.61035156 C66.88096246 879.49360714 67.02643203 872.78528017 67.98721504 863.88911057 C68.53237648 859.77479769 69.11662131 855.66781696 69.71533203 851.56103516 C69.94096163 849.98089121 70.16603889 848.4006683 70.39060974 846.82037354 C71.00106782 842.5360646 71.61932951 838.25291466 72.23906827 833.96993971 C72.89416612 829.4335224 73.54222639 824.89609946 74.19114685 820.35879517 C75.28749439 812.7000204 76.38846432 805.04192211 77.49267578 797.38427734 C79.02455622 786.76069728 80.5479746 776.13591726 82.06968999 765.51087713 C91.80836824 697.52874104 91.80836824 697.52874104 96.50404358 666.50473022 C96.74829473 664.8871289 96.99239499 663.26950478 97.23632812 661.65185547 C97.35043691 660.89700804 97.46454569 660.14216061 97.58211231 659.36443901 C98.23578699 654.99576929 98.84886271 650.62329832 99.43338013 646.24481201 C99.6361889 644.72714768 99.6361889 644.72714768 99.84309483 643.17882347 C100.10454422 641.20783583 100.36266079 639.23640252 100.61704159 637.26449013 C100.7340772 636.37922834 100.8511128 635.49396656 100.97169495 634.58187866 C101.07361932 633.79463598 101.17554369 633.0073933 101.28055668 632.19629478 C101.62329102 630.25878906 101.62329102 630.25878906 102.62329102 628.25878906 C75.89329102 628.25878906 49.16329102 628.25878906 21.62329102 628.25878906 C21.62329102 631.22878906 21.62329102 634.19878906 21.62329102 637.25878906 C21.36601244 639.82681021 21.05518648 642.38999404 20.69287109 644.9453125 C20.59361328 645.65772598 20.49435547 646.37013947 20.39208984 647.10414124 C20.06478944 649.44300516 19.7288131 651.78053417 19.39282227 654.11816406 C19.15760824 655.78778202 18.92297635 657.45748207 18.68888855 659.1272583 C18.06983131 663.53277766 17.44357124 667.93724214 16.81555176 672.3414917 C16.19758144 676.68188398 15.58518963 681.02306105 14.97290039 685.36425781 C14.85285015 686.21534748 14.73279991 687.06643715 14.60911179 687.94331741 C14.36666059 689.66231318 14.12424291 691.38131368 13.88185883 693.10031891 C13.51686492 695.68744989 13.15118685 698.27448357 12.78546143 700.86151123 C9.39696425 724.85652503 6.15987764 748.87188242 3.08197021 772.90872192 C0.59188369 792.31176578 -2.09659662 811.68270829 -4.90258789 831.04248047 C-5.193527 833.05076876 -5.48438146 835.05906931 -5.77514648 837.06738281 C-5.9151004 838.03387756 -6.05505432 839.00037231 -6.19924927 839.99615479 C-7.04118378 845.84047983 -7.84322216 851.68843469 -8.60327148 857.54394531 C-8.73887985 858.57724724 -8.73887985 858.57724724 -8.87722778 859.63142395 C-9.27920492 862.69543125 -9.67262483 865.7598884 -10.04711914 868.82739258 C-11.12536922 877.0963439 -12.52212449 883.80627867 -19.37670898 889.25878906 C-24.90739227 891.26339855 -29.90233768 891.55555835 -35.74926758 891.54931641 C-37.11899971 891.55939224 -37.11899971 891.55939224 -38.5164032 891.56967163 C-41.51937377 891.58858808 -44.52212013 891.59257247 -47.52514648 891.59472656 C-49.62350555 891.60115835 -51.72186373 891.60788699 -53.82022095 891.61489868 C-58.21309488 891.62685516 -62.60589025 891.63058112 -66.9987793 891.62939453 C-72.6130035 891.62919131 -78.2267217 891.65650417 -83.84082603 891.69093895 C-88.17327159 891.71323227 -92.50559577 891.71723134 -96.8380928 891.71617508 C-98.9072405 891.71852695 -100.97639175 891.72732701 -103.04548264 891.74283981 C-105.9457978 891.76255108 -108.84502671 891.75664174 -111.74536133 891.74462891 C-112.59032669 891.75586792 -113.43529205 891.76710693 -114.30586243 891.77868652 C-121.36487419 891.70481196 -127.43477537 889.8235517 -132.81420898 885.13378906 C-137.43812671 876.62578044 -136.25572302 868.02229248 -134.84936523 858.78613281 C-134.66003429 857.46070268 -134.47220358 856.13505751 -134.28575134 854.80921936 C-133.78859058 851.30280511 -133.27156098 847.79960953 -132.75 844.29675293 C-132.25140478 840.92702472 -131.77061906 837.55478013 -131.28881836 834.18261719 C-130.46827227 828.45649036 -129.63608903 822.73214257 -128.7980957 817.00854492 C-127.19857606 806.07476627 -125.63670574 795.13565436 -124.07592773 784.19628906 C-123.93016108 783.17517406 -123.78439442 782.15405907 -123.63421059 781.10200119 C-121.70385251 767.5794567 -119.77801478 754.05626967 -117.85362911 740.53287411 C-116.46999515 730.80964816 -115.08519525 721.08658868 -113.6996088 711.36364079 C-112.8167923 705.16811945 -111.93480961 698.97248135 -111.05444336 692.77661133 C-110.17939385 686.61846563 -109.30223938 680.46062296 -108.42368317 674.30297661 C-108.09605967 672.00415039 -107.76916385 669.70522032 -107.44307709 667.40617561 C-105.58741736 654.32627791 -103.62712795 641.27699377 -101.37670898 628.25878906 C-102.48425034 628.2654509 -103.59179169 628.27211273 -104.7328949 628.27897644 C-115.19323883 628.33990966 -125.65354654 628.38482027 -136.11402798 628.41422558 C-141.49129599 628.42985157 -146.8684202 628.4510338 -152.24560547 628.48510742 C-157.439229 628.51781024 -162.6327146 628.53566512 -167.82643318 628.54342079 C-169.80347933 628.54894472 -171.78051832 628.55973147 -173.75750542 628.57597923 C-176.53625414 628.59789874 -179.31443984 628.60074994 -182.09326172 628.59936523 C-183.3070752 628.61554398 -183.3070752 628.61554398 -184.54541016 628.63204956 C-190.55918981 628.59982593 -197.12309285 627.85759106 -201.97301388 623.98375225 C-207.1133876 618.33068807 -207.67653248 611.46588254 -207.65136719 604.15551758 C-207.65647812 603.37730652 -207.66158905 602.59909546 -207.66685486 601.79730225 C-207.68066957 599.24402006 -207.67980036 596.69101025 -207.67749023 594.13769531 C-207.68138141 592.35082399 -207.68571695 590.56395358 -207.69047546 588.77708435 C-207.69792005 585.03910315 -207.69765904 581.30121643 -207.69238281 577.56323242 C-207.68658823 572.78747785 -207.70352745 568.01211111 -207.72672749 563.23642063 C-207.74150144 559.54825096 -207.74233159 555.86017393 -207.73921776 552.1719799 C-207.73972905 550.41182626 -207.74493057 548.65166718 -207.75502968 546.89154243 C-207.76744923 544.42459443 -207.76057008 541.9583923 -207.74902344 539.49145508 C-207.75666718 538.77380478 -207.76431091 538.05615448 -207.77218628 537.3167572 C-207.70616134 530.89314235 -206.16822 525.49817783 -202.12670898 520.44628906 C-195.68395262 515.32136923 -190.09209883 514.82661968 -182.12695312 514.91821289 C-180.61849319 514.91755577 -180.61849319 514.91755577 -179.07955933 514.91688538 C-175.77346009 514.91896638 -172.4678753 514.94226538 -169.16186523 514.96582031 C-166.86258725 514.9714187 -164.56330568 514.97568765 -162.26402283 514.97868347 C-156.22563723 514.99011304 -150.18746965 515.0195642 -144.14916992 515.05279541 C-137.98220773 515.08353688 -131.81521016 515.09719753 -125.64819336 515.11230469 C-113.55760302 515.14443552 -101.46717416 515.19560921 -89.37670898 515.25878906 C-89.24697189 514.05879776 -89.1172348 512.85880646 -88.98356628 511.62245178 C-88.80765006 510.01302185 -88.63164536 508.40360159 -88.45556641 506.79418945 C-88.3707476 506.00745094 -88.2859288 505.22071243 -88.19853973 504.41013336 C-87.45890595 497.67627834 -86.49729711 490.98863568 -85.42333984 484.30053711 C-82.4164646 465.45912824 -79.67007781 446.58401343 -77.00097656 427.69213867 C-76.72920769 425.77032774 -76.45731566 423.84853422 -76.18530273 421.92675781 C-76.05052017 420.97449814 -75.91573761 420.02223846 -75.77687073 419.04112244 C-73.70145837 404.43865162 -71.53251831 389.84956361 -69.37670898 375.25878906 C-70.47616348 375.26323029 -71.57561798 375.26767151 -72.70838928 375.27224731 C-83.08107806 375.31283026 -93.45375067 375.34279119 -103.82650089 375.36241341 C-109.15894447 375.37284057 -114.49132384 375.38698036 -119.82373047 375.40966797 C-124.97194994 375.43143429 -130.12010773 375.44336572 -135.26836967 375.44854355 C-137.23031014 375.45223249 -139.19224732 375.45943606 -141.15416145 375.47024918 C-143.90688438 375.48481438 -146.65935398 375.48676489 -149.41210938 375.48583984 C-150.21915817 375.4930304 -151.02620697 375.50022095 -151.85771179 375.50762939 C-158.02488051 375.48527479 -163.36049553 375.00617405 -168.18920898 370.82128906 C-173.43302822 364.67852938 -173.52693733 359.18185334 -173.52197266 351.36083984 C-173.52533127 350.59252838 -173.52868988 349.82421692 -173.53215027 349.03262329 C-173.54160693 346.50643269 -173.54360067 343.98030874 -173.54467773 341.45410156 C-173.54789382 339.68822198 -173.55125816 337.92234266 -173.55476379 336.15646362 C-173.56074173 332.45960879 -173.56260505 328.76277729 -173.56201172 325.06591797 C-173.56191014 320.34291041 -173.57556441 315.6200533 -173.59278393 310.89708138 C-173.60393464 307.25095948 -173.60592999 303.60487362 -173.60540199 299.95873642 C-173.6065774 298.21812293 -173.61097435 296.47750836 -173.61873436 294.73691177 C-173.62859714 292.29634481 -173.6256317 289.85610016 -173.61962891 287.41552734 C-173.62524841 286.70565674 -173.63086792 285.99578613 -173.63665771 285.2644043 C-173.59904108 279.20681712 -173.02215084 273.45271153 -169.31420898 268.50878906 C-162.30438904 263.13956528 -155.78436079 261.6674958 -147.08349609 261.8046875 C-146.09707123 261.80410339 -145.11064636 261.80351929 -144.09432983 261.80291748 C-140.86386786 261.80568362 -137.63435166 261.83670632 -134.40405273 261.86816406 C-132.15247603 261.87563167 -129.9008928 261.88132214 -127.64930725 261.88531494 C-121.74567474 261.90053022 -115.84244075 261.93977687 -109.93896484 261.98413086 C-103.90589792 262.02517213 -97.87276612 262.04334486 -91.83959961 262.06347656 C-80.01846173 262.10627492 -68.1976186 262.17447656 -56.37670898 262.25878906 C-55.90462572 258.96400626 -55.43310314 255.66914345 -54.96166992 252.37426758 C-54.82997406 251.4551786 -54.6982782 250.53608963 -54.56259155 249.58914948 C-53.45829573 241.86810076 -52.38574453 234.14294704 -51.3359375 226.41430664 C-51.22081818 225.56736237 -51.10569885 224.72041809 -50.98709106 223.84780884 C-50.86816498 222.97280731 -50.74923889 222.09780579 -50.62670898 221.19628906 C-50.36884427 219.3039511 -50.11094947 217.41161724 -49.85302734 215.51928711 C-48.44830018 205.20239465 -47.05646127 194.88384284 -45.67749023 184.56347656 C-42.69764346 162.27688618 -39.65258909 140.00323928 -36.44250488 117.74856567 C-34.10264857 101.51354995 -31.86825946 85.26613972 -29.68920898 69.00878906 C-29.39270371 66.80272843 -29.0961549 64.59667365 -28.79956055 62.390625 C-27.66350979 53.9300386 -26.52825357 45.46950758 -25.436203 37.00311279 C-25.16567716 34.91117895 -24.89146944 32.81976699 -24.61572266 30.72851562 C-24.30457015 28.36170607 -24.00054846 25.99394001 -23.70605469 23.625 C-22.59167962 15.23079791 -21.29383123 7.85836422 -14.37670898 2.25878906 C-9.70407527 -0.25208464 -5.16684097 -0.02378048 0 0 Z " fill="#D50000" transform="translate(686.376708984375,345.7412109375)"/>
<path d="M0 0 C3.5726008 0.01074173 7.14469909 0.00000287 10.71728516 -0.01269531 C32.20622779 -0.02627819 53.71133008 1.0422621 75.01025391 4.01074219 C76.23276855 4.17848145 77.4552832 4.3462207 78.71484375 4.51904297 C98.36596189 7.33353179 117.8802663 11.24392718 136.74414062 17.48974609 C138.30519595 18.00660631 139.86941286 18.51400765 141.43652344 19.01220703 C172.7365955 28.96812372 203.43914026 44.14371026 227.07275391 67.26074219 C228.06644362 68.19420829 229.06124859 69.12648852 230.05712891 70.05761719 C252.17722502 91.04913697 267.2458843 119.96927565 275.07275391 149.26074219 C275.3109082 150.12135254 275.5490625 150.98196289 275.79443359 151.86865234 C280.69440508 169.78863678 283.25017696 187.80758349 285.07275391 206.26074219 C285.15596954 207.0153727 285.23918518 207.77000322 285.3249225 208.54750133 C286.31716885 218.598147 286.20880926 228.6362804 286.19300842 238.72369385 C286.19344495 240.80057563 286.19432135 242.87745735 286.19559759 244.95433879 C286.19782658 250.63942215 286.19384315 256.32448655 286.18881953 262.0095675 C286.18449226 268.14847324 286.18596307 274.28737795 286.1867218 280.42628479 C286.18724559 291.05507951 286.18414894 301.68386747 286.17848396 312.31266022 C286.17256005 323.45592528 286.16871663 334.5991879 286.16763115 345.74245453 C286.16756241 346.43618939 286.16749367 347.12992425 286.16742285 347.84468138 C286.1670845 351.36803638 286.16678312 354.89139137 286.16649597 358.41474637 C286.16439746 383.34860211 286.1576654 408.28245465 286.14819336 433.21630859 C286.13900399 457.43408186 286.13192279 481.65185425 286.12768555 505.86962891 C286.12748826 506.99004445 286.12748826 506.99004445 286.12728698 508.13309466 C286.12596842 515.63444258 286.12469262 523.1357905 286.12344812 530.63713843 C286.12091214 545.91725168 286.11809089 561.19736486 286.11509705 576.47747803 C286.11495976 577.1799805 286.11482247 577.88248297 286.11468102 578.60627339 C286.10548563 625.49109796 286.08899899 672.37591941 286.07275391 719.26074219 C240.20275391 719.26074219 194.33275391 719.26074219 147.07275391 719.26074219 C147.07275391 698.47074219 147.07275391 677.68074219 147.07275391 656.26074219 C144.34243795 658.99105814 142.6204513 661.39933911 140.57275391 664.63574219 C117.50628528 699.46652996 80.76389714 715.12894339 41.07275391 723.26074219 C20.71166341 726.67798815 0.05818198 727.64527323 -20.55224609 727.57324219 C-21.58986084 727.57208405 -22.62747559 727.5709259 -23.6965332 727.56973267 C-46.07938409 727.52057214 -68.00159646 725.99025405 -89.92724609 721.26074219 C-91.43063198 720.96898539 -92.93457229 720.68007553 -94.43896484 720.39355469 C-110.12643812 717.34513311 -125.36418728 712.90291779 -139.92724609 706.26074219 C-140.96268555 705.79909668 -140.96268555 705.79909668 -142.01904297 705.328125 C-191.42267282 683.22871029 -233.61925977 642.05333023 -253.29980469 591.24804688 C-254.18386737 588.92195126 -255.05600821 586.59166234 -255.92724609 584.26074219 C-256.55953125 582.63458984 -256.55953125 582.63458984 -257.20458984 580.97558594 C-270.63335599 545.75674641 -271.35617587 499.97777462 -263.92724609 463.26074219 C-263.75563965 462.41092773 -263.5840332 461.56111328 -263.40722656 460.68554688 C-259.59571846 442.62601518 -253.57968486 425.23536327 -244.84423828 408.97265625 C-244.01232173 407.41956817 -243.20652301 405.85256016 -242.40380859 404.28417969 C-234.4930269 389.11820593 -223.59421188 375.68485619 -211.92724609 363.26074219 C-211.40807617 362.70225586 -210.88890625 362.14376953 -210.35400391 361.56835938 C-173.05457866 321.74088578 -118.04949372 303.06895491 -64.36873198 301.1702466 C-49.84192567 300.79132526 -35.30413409 300.90185561 -20.77399611 300.95656037 C-14.85376157 300.97557459 -8.93352025 300.97709678 -3.01325989 300.9806366 C8.14893045 300.98988555 19.31103049 301.01440032 30.47318143 301.04468507 C43.20153127 301.0784545 55.92988589 301.09477121 68.65826952 301.10977137 C94.79648065 301.140958 120.93461217 301.19357614 147.07275391 301.26074219 C147.03448737 289.55884653 146.97482468 277.85726562 146.88885117 266.15561771 C146.84956837 260.72035182 146.81728662 255.2852433 146.80175781 249.84985352 C146.78646367 244.59115976 146.75179612 239.33289922 146.70444489 234.07439995 C146.68976135 232.08169792 146.6817205 230.088934 146.68087006 228.09617805 C146.66023731 203.96159428 142.08271925 183.89939718 124.83447266 165.92871094 C110.68369889 152.33377771 91.14846531 144.45106827 72.14013672 140.67382812 C70.17278441 140.28072939 68.21231183 139.85365159 66.25244141 139.42480469 C19.21143462 129.66886694 -50.39210774 128.19841537 -92.04443359 155.28808594 C-104.98736045 164.58346068 -114.80631555 175.59733679 -122.92724609 189.26074219 C-127.1215874 187.85005545 -129.85557046 185.84759049 -133.17724609 182.94824219 C-138.04928619 178.76813052 -143.05595056 174.81829889 -148.17724609 170.94824219 C-153.84804723 166.65338845 -159.4287353 162.27406909 -164.92724609 157.76074219 C-170.34588446 153.31449144 -175.84061831 148.99396105 -181.42724609 144.76074219 C-187.01388034 140.52751842 -192.50848698 136.20685209 -197.92724609 131.76074219 C-204.16898787 126.6398493 -210.52638596 121.69475551 -216.95629883 116.81274414 C-222.35154229 112.7143309 -227.67038442 108.53597858 -232.92724609 104.26074219 C-228.88668057 97.50941751 -223.96155233 91.8234872 -218.59912109 86.11621094 C-216.42090927 83.78832666 -214.31301413 81.43113996 -212.23974609 79.01074219 C-205.45929444 71.23646547 -197.9903913 64.67792235 -189.92724609 58.26074219 C-188.87689277 57.39722104 -187.82743646 56.53260784 -186.77880859 55.66699219 C-133.83875312 12.42934807 -66.68172447 -0.23700955 0 0 Z " fill="#92C600" transform="translate(2394.92724609375,366.7392578125)"/>
<path d="M0 0 C48.18 0 96.36 0 146 0 C162 47 162 47 167 64 C168.11039126 67.40526048 169.23159767 70.79165229 170.41015625 74.171875 C170.85143105 75.45460297 170.85143105 75.45460297 171.30162048 76.76324463 C172.21834554 79.4267439 173.13997508 82.08850464 174.0625 84.75 C180.94861442 104.66091481 180.94861442 104.66091481 183.92016602 114.52246094 C185.30754942 118.99044402 186.78880883 123.42422678 188.27734375 127.859375 C188.57314835 128.74123474 188.86895294 129.62309448 189.17372131 130.53167725 C190.40039792 134.18437904 191.62922748 137.83634642 192.86108398 141.48730469 C195.89893053 150.49826348 198.91232442 159.49889256 201.53515625 168.640625 C204.18723941 177.87728697 207.33397641 186.92907659 210.5 196 C213.67000884 205.08234148 216.81710567 214.14404105 219.46484375 223.39453125 C222.29751371 233.28396195 225.68573092 242.97315215 229.0625 252.6875 C232.59301962 262.8466746 236.05361147 272.95860769 238.92016602 283.32885742 C241.56291563 292.31348911 244.7868152 301.12537269 247.86108398 309.96948242 C251.15037613 319.44729657 254.33064687 328.91462065 257.08944702 338.56106567 C259.73778283 347.71530261 262.93445454 356.68868458 266.0625 365.6875 C269.59301962 375.8466746 273.05361147 385.95860769 275.92016602 396.32885742 C278.56291563 405.31348911 281.7868152 414.12537269 284.86108398 422.96948242 C288.16857583 432.49973745 291.36497478 442.02027073 294.13943481 451.72009277 C296.77188527 460.82838478 299.992693 469.74095671 303.14770508 478.6784668 C303.95397529 480.96744021 304.75275447 483.25892336 305.55078125 485.55078125 C305.79758133 486.24238846 306.04438141 486.93399567 306.29866028 487.64656067 C307.46406423 491.00352211 308 493.39329645 308 497 C308.99 497 309.98 497 311 497 C312.43387542 492.23896476 313.8652785 487.47758362 315.25390625 482.703125 C319.75224629 467.33177338 324.89177026 452.17623224 330 437 C332.02552165 430.9807341 334.04729945 424.96022981 336.0625 418.9375 C336.31683807 418.17752716 336.57117615 417.41755432 336.83322144 416.634552 C340.63614024 405.25510808 344.26462601 393.83395487 347.78417969 382.36328125 C351.63918978 369.83536747 355.81463262 357.42062205 360 345 C362.00545589 339.04349142 364.00556084 333.08520649 366 327.125 C366.25638245 326.35922638 366.51276489 325.59345276 366.7769165 324.80447388 C370.60297377 313.36143533 374.24400564 301.87540227 377.76855469 290.33544922 C380.59937962 281.12946202 383.7124871 272.0402615 386.90917969 262.95581055 C389.13462724 256.60095404 391.16255729 250.2408668 392.97753906 243.75878906 C395.03476702 236.57750759 397.53695359 229.54996527 400 222.5 C403.98837062 211.10749645 403.98837062 211.10749645 407.5 199.5625 C411.16756842 186.55690312 415.69068885 173.803935 420 161 C422.0254457 154.98070827 424.04707349 148.96015436 426.0625 142.9375 C426.31674744 142.17813141 426.57099487 141.41876282 426.83294678 140.63638306 C430.64042037 129.24920826 434.26138442 117.81835109 437.76879883 106.3347168 C440.59950223 97.12896219 443.71257302 88.04001732 446.90917969 78.95581055 C449.13462724 72.60095404 451.16255729 66.2408668 452.97753906 59.75878906 C455.22042235 51.9294301 457.98106171 44.27230299 460.66894531 36.58743286 C463.69953268 27.91396656 466.53265642 19.24226294 468.96484375 10.3828125 C470.05134418 6.8322111 471.53733073 3.41289497 473 0 C521.51 0 570.02 0 620 0 C616.62907456 11.23641813 616.62907456 11.23641813 615.046875 15.7734375 C614.50063477 17.34738281 614.50063477 17.34738281 613.94335938 18.953125 C613.35264648 20.64695312 613.35264648 20.64695312 612.75 22.375 C611.8585994 24.94504726 610.96782146 27.51530067 610.078125 30.0859375 C609.83860107 30.77766052 609.59907715 31.46938354 609.35229492 32.18206787 C606.3641332 40.82210052 603.42184162 49.47777783 600.47613525 58.13235474 C585.733091 101.44379221 585.733091 101.44379221 578.88671875 120.83203125 C577.77847891 123.97129528 576.67035292 127.1105994 575.5625 130.25 C575.28764771 131.02873474 575.01279541 131.80746948 574.72961426 132.60980225 C570.75163706 143.89185094 566.88600568 155.20633084 563.125 166.5625 C562.89531525 167.2559552 562.66563049 167.9494104 562.4289856 168.66387939 C562.20242279 169.34794861 561.97585999 170.03201782 561.74243164 170.73681641 C557.50321425 183.53409773 553.0589471 196.24914064 548.515625 208.94140625 C547.59267581 211.52305492 546.67090291 214.1051207 545.75 216.6875 C545.51503815 217.34632172 545.28007629 218.00514343 545.03799438 218.68392944 C541.46155409 228.72803379 538.03005711 238.81337342 534.6875 248.9375 C528.08566326 268.93309966 521.07213395 288.78358562 514.06845093 308.64123535 C513.12621674 311.31370145 512.18600541 313.98687256 511.24609375 316.66015625 C510.8181955 317.87140923 510.8181955 317.87140923 510.38165283 319.10713196 C508.16101776 325.43099841 506.15380677 331.80432786 504.23828125 338.2265625 C503.29869424 341.08978349 502.28699254 343.81024338 501.14599609 346.59155273 C499.05980864 351.77471961 497.21284353 357.01600316 495.42578125 362.30859375 C494.93766212 363.74396988 494.93766212 363.74396988 494.43968201 365.20834351 C493.39466261 368.28384502 492.35354231 371.36065026 491.3125 374.4375 C490.59230816 376.55890096 489.87192968 378.68023858 489.15136719 380.80151367 C486.10649894 389.77362375 483.07142394 398.74882251 480.08984375 407.7421875 C479.68403076 408.96623291 479.27821777 410.19027832 478.86010742 411.45141602 C478.14986201 413.60183356 477.4426955 415.75327201 476.73950195 417.90600586 C475.27091622 422.36729622 473.72809676 426.75611688 471.953125 431.10546875 C470.02516755 435.83046048 468.47378814 440.61706456 467 445.5 C465.54591232 450.31766413 464.02350153 455.04474807 462.10986328 459.70214844 C460.13435504 464.59990132 458.37064102 469.54481952 456.6796875 474.546875 C456.37925034 475.42886566 456.07881317 476.31085632 455.76927185 477.21957397 C454.80187439 480.06215967 453.83838808 482.90605327 452.875 485.75 C452.20483631 487.72124754 451.53450618 489.6924385 450.86401367 491.66357422 C447.86024081 500.50374271 444.87285791 509.34909507 441.93359375 518.2109375 C441.70500671 518.89973999 441.47641968 519.58854248 441.24090576 520.29821777 C440.20391942 523.42594364 439.17164532 526.55505191 438.14599609 529.68652344 C437.7845752 530.78254883 437.4231543 531.87857422 437.05078125 533.0078125 C436.74825439 533.93223145 436.44572754 534.85665039 436.1340332 535.80908203 C435.17796496 538.49924608 434.15145127 541.13072364 433.0793457 543.77563477 C431.10951141 548.6592446 429.35988412 553.59247173 427.6796875 558.58203125 C427.37952225 559.46589508 427.07935699 560.34975891 426.77009583 561.26040649 C426.13205016 563.14007592 425.49519761 565.02015072 424.85946655 566.90060425 C423.52188938 570.85694513 422.17839754 574.81126919 420.83518982 578.76570129 C420.16283187 580.74524771 419.49076218 582.72489205 418.81898499 584.70463562 C414.97636982 596.0261606 411.07291608 607.32633923 407.16503906 618.62548828 C405.95764544 622.12267912 404.755554 625.62165658 403.5546875 629.12109375 C399.26785974 641.60434291 394.9277291 654.06617826 390.5 666.5 C383.87136884 685.12359829 377.43527155 703.8107925 371.0859375 722.53125 C369.64075981 726.79171241 368.1954742 731.05213818 366.75 735.3125 C366.38500397 736.38838379 366.02000793 737.46426758 365.64395142 738.57275391 C359.32548994 757.18847727 352.87003615 775.7531274 346.35032654 794.2991333 C341.27520537 808.74550669 336.21660385 823.20279539 331.4375 837.75 C325.51498152 855.55911697 319.22508588 873.11102887 311 890 C310.54753906 890.93086426 310.09507812 891.86172852 309.62890625 892.82080078 C303.12729148 906.05088206 295.97466678 918.30099719 287 930 C286.26523438 930.97710938 285.53046875 931.95421875 284.7734375 932.9609375 C254.66045738 971.4198372 208.58567371 990.1952693 161 996 C135.39640113 997.82882849 109.66883108 997 84 997 C84 952.78 84 908.56 84 863 C109.245 862.505 109.245 862.505 135 862 C150.22894937 859.16508098 150.22894937 859.16508098 164.0625 853.75 C164.84995605 853.35941406 165.63741211 852.96882813 166.44873047 852.56640625 C172.61521457 849.41235107 177.95910016 845.7721754 183 841 C184.1446875 839.98873047 184.1446875 839.98873047 185.3125 838.95703125 C202.60069118 822.92457017 208.77571382 798.48644092 214.98413086 776.55102539 C216.58103866 770.96894802 218.28067718 765.42042148 220 759.875 C220.37664795 758.65868896 220.7532959 757.44237793 221.14135742 756.18920898 C224.85900443 744.25288735 228.82455175 732.39979781 232.83789062 720.56005859 C235.47694318 712.74902933 237.9539194 704.93750646 240.14794922 696.98754883 C241.16159004 693.43341623 242.3361365 689.95494886 243.58203125 686.4765625 C244.82058066 679.13786789 241.94271453 672.60760003 239.25 665.9375 C238.51966177 664.07909522 237.79180933 662.21971169 237.06640625 660.359375 C236.7120752 659.45123047 236.35774414 658.54308594 235.99267578 657.60742188 C234.20001021 652.89869873 232.64816793 648.11939561 231.10546875 643.32421875 C230.09028633 640.27149707 228.9867078 637.26473565 227.84594727 634.25708008 C226.13469691 629.69127645 224.51701437 625.09104782 222.875 620.5 C219.80274003 611.9295129 216.65980402 603.39013955 213.4375 594.875 C210.23135391 586.38879011 207.18072038 577.86230256 204.23242188 569.28344727 C200.98377831 559.86730793 197.56867514 550.51397607 194.15048218 541.15844727 C190.76905234 531.90158644 187.41959127 522.63709942 184.23022461 513.31176758 C182.96664107 509.64268598 181.62280461 506.03063316 180.15625 502.4375 C177.64814538 496.23433499 175.46201673 489.92119128 173.25738525 483.60586548 C168.9629106 471.31094618 164.59272862 459.04547759 160.125 446.8125 C155.66470293 434.59874267 151.25669623 422.36717399 146.875 410.125 C142.93654466 399.12209018 138.96350503 388.13570044 134.875 377.1875 C129.54207262 362.90011276 124.49602877 348.51357555 119.44726562 334.12402344 C117.9092238 329.74094672 116.37039067 325.35815505 114.828125 320.9765625 C114.58930603 320.29604828 114.35048706 319.61553406 114.10443115 318.91439819 C112.67952734 314.86985207 111.20255522 310.84829131 109.68920898 306.83602905 C108.7862696 304.43062956 107.9176073 302.01376674 107.0546875 299.59375 C106.7045459 298.61494873 106.3544043 297.63614746 105.99365234 296.62768555 C105.62449707 295.59554932 105.2553418 294.56341309 104.875 293.5 C101.78019378 284.86782418 98.61643589 276.26564152 95.375 267.6875 C92.48026338 260.01469673 89.67737274 252.32095861 86.99316406 244.57226562 C83.931811 235.75529938 80.78013207 226.97123657 77.625 218.1875 C77.33045929 217.36735413 77.03591858 216.54720825 76.73245239 215.70220947 C71.22744772 200.37853418 65.68716276 185.06764922 60.14398193 169.75775146 C55.600288 157.20757511 51.07574891 144.65123676 46.59790039 132.07739258 C41.95184901 119.03961318 37.23991695 106.02565421 32.53268433 93.00987244 C30.54928813 87.52401989 28.57228528 82.03588856 26.59765625 76.546875 C21.84348511 63.33766446 17.08680774 50.13305585 12.125 37 C9.35025439 29.64805617 6.62387232 22.28229912 4 14.875 C3.70883301 14.06289063 3.41766602 13.25078125 3.11767578 12.4140625 C2.85196777 11.65609375 2.58625977 10.898125 2.3125 10.1171875 C1.96638672 9.13661377 1.96638672 9.13661377 1.61328125 8.13623047 C0.85034208 5.47869951 0.45454304 2.72725825 0 0 Z " fill="#0D98D9" transform="translate(2740,376)"/>
<path d="M0 0 C1.10168518 -0.00686325 2.20337036 -0.0137265 3.33843994 -0.02079773 C6.96794645 -0.03904915 10.59702009 -0.0352308 14.2265625 -0.02954102 C16.75569804 -0.03410319 19.28483234 -0.03940888 21.81396484 -0.04542542 C27.10975774 -0.054353 32.40539376 -0.05217161 37.70117188 -0.04199219 C43.81058462 -0.03050785 49.91955854 -0.04459781 56.0289135 -0.07138866 C61.92305029 -0.09626146 67.8170513 -0.09871641 73.71124268 -0.0922718 C76.21186046 -0.09211853 78.71248667 -0.09816762 81.21307373 -0.11056328 C84.7100888 -0.12545793 88.20613988 -0.11480648 91.703125 -0.09765625 C93.24785492 -0.1121582 93.24785492 -0.1121582 94.8237915 -0.12695312 C101.05273094 -0.06305935 104.76366638 0.74128831 109.8515625 4.40405273 C113.71007926 8.46564933 114.62173515 11.10577925 115.1640625 16.52905273 C114.36715612 26.4106919 108.27655501 36.15652761 104.1421814 45.08432007 C102.23806962 49.19633128 100.3422051 53.31214511 98.4453125 57.42749023 C98.05933395 58.26432846 97.67335541 59.10116669 97.27568054 59.96336365 C93.49821379 68.15831294 89.76491747 76.37304158 86.0390625 84.59155273 C81.74204832 94.06704847 77.41707495 103.52811288 73.0390625 112.96655273 C67.90890983 124.0313633 62.90686979 135.15178461 57.9140625 146.27905273 C51.15210339 161.34815473 44.27357123 176.35508242 37.28808594 191.32202148 C29.53107803 207.96452111 22.01425349 224.70976313 14.59643555 241.50561523 C10.46039564 250.85984798 6.21207062 260.15242962 1.8515625 269.40405273 C-6.38095005 286.90742429 -14.45893736 304.46814112 -22.37176514 322.11837769 C-28.70451797 336.24121491 -35.16587452 350.29662872 -41.71191406 364.32202148 C-49.46892197 380.96452111 -56.98574651 397.70976313 -64.40356445 414.50561523 C-68.26630872 423.24180451 -72.21536831 431.93006249 -76.28552246 440.57156372 C-78.6229228 445.53527423 -80.94705358 450.50524026 -83.2734375 455.47412109 C-83.85608305 456.71760765 -84.43941494 457.96077286 -85.0234375 459.20361328 C-89.56548776 468.87194516 -93.86459645 478.61241605 -98.1484375 488.40405273 C-34.2934375 488.89905273 -34.2934375 488.89905273 30.8515625 489.40405273 C30.82835938 476.33553711 30.80515625 463.26702148 30.78125 449.80249023 C30.77103394 441.53556236 30.76132356 433.26863905 30.75390625 425.00170898 C30.74203231 411.87294963 30.72806244 398.74421592 30.70068359 385.61547852 C30.68075452 376.05451266 30.6678472 366.49356759 30.66338551 356.93258154 C30.66077732 351.86972521 30.65464363 346.80692832 30.64010239 341.74409103 C30.62652615 336.97862573 30.62233996 332.21324434 30.62534714 327.44776154 C30.624797 325.69903991 30.62081981 323.95031547 30.61315155 322.20161057 C30.60318965 319.81263869 30.60559813 317.42398297 30.61105347 315.03500366 C30.60231494 313.99899035 30.60231494 313.99899035 30.59339988 312.94204748 C30.6343776 306.2951717 32.09976691 301.15584832 36.8515625 296.40405273 C42.64366861 293.28899044 47.48613942 292.96841386 53.99023438 293 C55.48182823 292.98970512 55.48182823 292.98970512 57.0035553 292.97920227 C60.27595476 292.9609675 63.54787335 292.96476673 66.8203125 292.97045898 C69.10282547 292.96589602 71.38533707 292.9605901 73.66784668 292.95457458 C78.44577627 292.9456503 83.22353865 292.94805944 88.00146484 292.95800781 C94.11810436 292.96950392 100.23416713 292.94927214 106.3507309 292.92009068 C111.06227267 292.90172899 115.77367617 292.90202099 120.48524475 292.9077282 C122.7402477 292.90788137 124.99526004 292.90184004 127.25022888 292.88943672 C130.40481596 292.87452745 133.55833649 292.88520369 136.71289062 292.90234375 C137.63985245 292.89267578 138.56681427 292.88300781 139.52186584 292.87304688 C145.48472597 292.94074717 148.95199006 293.95704769 153.8515625 297.40405273 C159.01836777 302.70682656 159.00163992 307.81349778 158.97181702 314.91474915 C158.97309865 316.03596713 158.97309865 316.03596713 158.97440618 317.17983598 C158.97605068 319.6794855 158.9705565 322.17906762 158.96508789 324.67871094 C158.96480577 326.47252908 158.96496424 328.26634733 158.9655304 330.06016541 C158.9658174 334.9274928 158.95993626 339.79479557 158.95295644 344.66211724 C158.94670683 349.74969371 158.94611783 354.83727075 158.94493103 359.92485046 C158.94182246 369.5578325 158.93361545 379.1908032 158.92358154 388.82378024 C158.9124057 399.79103786 158.90690624 410.75829602 158.90188611 421.72555792 C158.89143246 444.28506248 158.87384217 466.84455697 158.8515625 489.40405273 C159.925271 489.38834229 160.99897949 489.37263184 162.10522461 489.35644531 C166.12516649 489.30175319 170.14507612 489.26756116 174.1652832 489.23925781 C175.89841256 489.22426004 177.63150454 489.20385501 179.36450195 489.17773438 C181.86939775 489.14095071 184.3737877 489.12423622 186.87890625 489.11108398 C187.64178452 489.09560013 188.40466278 489.08011627 189.19065857 489.06416321 C196.07462307 489.06205554 202.26197473 490.4205387 207.7890625 494.65405273 C212.18566057 500.51618349 212.14347624 506.85126406 212.11035156 513.90014648 C212.11560852 515.28932785 212.11560852 515.28932785 212.12097168 516.70657349 C212.12973574 519.75164402 212.12395865 522.79648005 212.1171875 525.84155273 C212.11853568 527.96712285 212.12047749 530.09269266 212.12298584 532.21826172 C212.12592989 536.66661524 212.12166254 541.11488828 212.11230469 545.56323242 C212.10091065 551.2559805 212.10747396 556.94853996 212.11944962 562.64128113 C212.12668759 567.02853814 212.12437137 571.41575066 212.11919403 575.80300903 C212.1178629 577.90170311 212.11948641 580.00040127 212.12415314 582.09909058 C212.12925018 585.03548838 212.12146343 587.97158362 212.11035156 590.90795898 C212.11440002 591.76946564 212.11844849 592.63097229 212.12261963 593.51858521 C212.07917507 599.73728553 211.63405879 605.02739102 207.7890625 610.15405273 C201.52260247 614.95389446 194.58412883 615.85341152 186.87890625 615.69702148 C186.07038712 615.69277664 185.26186798 615.6885318 184.42884827 615.68415833 C181.88189377 615.66755308 179.3357721 615.62993806 176.7890625 615.59155273 C175.04753758 615.57648231 173.30600009 615.56279807 171.56445312 615.55053711 C167.32650889 615.51770958 163.08917618 615.46605729 158.8515625 615.40405273 C158.85600372 616.48067169 158.86044495 617.55729065 158.86502075 618.66653442 C158.90558597 628.81879219 158.93555612 638.97103349 158.95518684 649.12335396 C158.96561849 654.34260565 158.97976649 659.56179185 159.00244141 664.78100586 C159.02419171 669.81899534 159.03613579 674.85692187 159.04131699 679.89495468 C159.0450088 681.81585557 159.05221798 683.73675306 159.06302261 685.65762711 C159.07756652 688.35068424 159.07953922 691.0434821 159.07861328 693.73657227 C159.08580383 694.52851486 159.09299438 695.32045746 159.10040283 696.13639832 C159.07481196 703.02695023 157.79852122 708.31967849 152.8515625 713.40405273 C147.54558808 716.81932055 143.00016453 716.8268779 136.90234375 716.77636719 C135.91624115 716.78001785 134.93013855 716.78366852 133.91415405 716.78742981 C130.66394677 716.79551655 127.41424097 716.78194043 124.1640625 716.76733398 C121.90014649 716.76681515 119.63623002 716.76733374 117.37231445 716.7688446 C112.6312791 716.76875496 107.89041408 716.75834213 103.14941406 716.74023438 C97.07651116 716.71754772 91.00385707 716.71700408 84.93092346 716.72375202 C80.25717971 716.72709571 75.58349254 716.72045432 70.90975952 716.71062279 C68.67068783 716.70677743 66.43160983 716.70561982 64.1925354 716.70720863 C61.06182901 716.70758006 57.93143991 716.69493702 54.80078125 716.67871094 C53.41661514 716.68242706 53.41661514 716.68242706 52.00448608 716.68621826 C45.74800801 716.63454552 40.91889744 716.28344814 36.1015625 711.90405273 C35.3590625 711.07905273 34.6165625 710.25405273 33.8515625 709.40405273 C33.1915625 708.74405273 32.5315625 708.08405273 31.8515625 707.40405273 C30.50837091 703.3012089 30.71904448 699.1427738 30.73803711 694.87182617 C30.73789108 694.01292786 30.73774506 693.15402954 30.7375946 692.269104 C30.73829054 689.43385277 30.74606805 686.59866747 30.75390625 683.76342773 C30.75577156 681.79616329 30.75719493 679.82889838 30.75819397 677.8616333 C30.76201023 672.6863883 30.77183294 667.5111714 30.78289795 662.3359375 C30.7931312 657.05395895 30.7976957 651.77197585 30.80273438 646.48999023 C30.81345599 636.12799872 30.83052175 625.76602807 30.8515625 615.40405273 C30.02397349 615.40576148 30.02397349 615.40576148 29.17966551 615.40750474 C-3.5211226 615.47464103 -36.22189343 615.52611345 -68.92273501 615.55724872 C-72.84928765 615.56100084 -76.77584015 615.5648838 -80.70239258 615.56884766 C-81.87494992 615.57002805 -81.87494992 615.57002805 -83.0711953 615.5712323 C-95.72794685 615.58428571 -108.38465752 615.6079392 -121.04138482 615.63551112 C-134.02864859 615.66356711 -147.01589095 615.6802294 -160.00318378 615.68631822 C-168.01684881 615.69043426 -176.03039828 615.70343382 -184.04402774 615.72780214 C-190.189209 615.74553672 -196.33430218 615.74741786 -202.47950554 615.74337578 C-205.00022468 615.74420193 -207.52094814 615.75018023 -210.04164124 615.76166916 C-213.48129654 615.77657919 -216.92045607 615.77301132 -220.36012268 615.76481628 C-221.35916124 615.77355481 -222.35819981 615.78229333 -223.38751227 615.79129666 C-230.52913042 615.74525897 -235.36036882 614.75842184 -240.9609375 610.02905273 C-245.46901713 604.61935717 -245.43803695 599.70486869 -245.40722656 592.95141602 C-245.4107312 592.00608002 -245.41423584 591.06074402 -245.41784668 590.08676147 C-245.4266393 586.96588772 -245.42082254 583.84524125 -245.4140625 580.72436523 C-245.41541008 578.55109616 -245.41735139 576.37782737 -245.41986084 574.20455933 C-245.42280895 569.65009694 -245.4185253 565.09571303 -245.40917969 560.54125977 C-245.39779898 554.71169327 -245.40433793 548.88231123 -245.41632462 543.05275154 C-245.42356321 538.56426615 -245.42124585 534.07582422 -245.41606903 529.58733749 C-245.41473736 527.43840386 -245.4163633 525.28946625 -245.42102814 523.14053726 C-245.42612465 520.13207857 -245.41833853 517.12391529 -245.40722656 514.11547852 C-245.41127502 513.2321283 -245.41532349 512.34877808 -245.41949463 511.43865967 C-245.37553998 504.99325995 -244.2642843 499.60436908 -241.6328125 493.67749023 C-241.35421387 493.04488281 -241.07561523 492.41227539 -240.78857422 491.76049805 C-240.4948291 491.10662109 -240.20108398 490.45274414 -239.8984375 489.77905273 C-239.5905127 489.08392578 -239.28258789 488.38879883 -238.96533203 487.67260742 C-236.5518195 482.2449962 -234.05017291 476.85923117 -231.54296875 471.47436523 C-230.19918739 468.51578778 -228.94182709 465.53611199 -227.7109375 462.52905273 C-225.58776843 457.36018746 -223.26071554 452.30324978 -220.87524414 447.25219727 C-218.71870502 442.66962424 -216.66072632 438.05161604 -214.6484375 433.40405273 C-212.12100168 427.57020589 -209.48512524 421.79881468 -206.7734375 416.04858398 C-204.6530302 411.53325237 -202.63156441 406.98118047 -200.6484375 402.40405273 C-198.12084229 396.57027272 -195.48512757 390.79881962 -192.7734375 385.04858398 C-190.6530302 380.53325237 -188.63156441 375.98118047 -186.6484375 371.40405273 C-184.12084229 365.57027272 -181.48512757 359.79881962 -178.7734375 354.04858398 C-176.6530302 349.53325237 -174.63156441 344.98118047 -172.6484375 340.40405273 C-170.12084229 334.57027272 -167.48512757 328.79881962 -164.7734375 323.04858398 C-162.65302707 318.5332457 -160.63176783 313.98109657 -158.6484375 309.40405273 C-155.29284579 301.66765365 -151.74575535 294.03044728 -148.1484375 286.40405273 C-144.01405176 277.63229175 -139.97962466 268.82509996 -136.05883789 259.95556641 C-134.12578761 255.58712558 -132.16178728 251.23630132 -130.1484375 246.90405273 C-127.75893894 241.76143626 -125.44339965 236.58928677 -123.1484375 231.40405273 C-120.39303674 225.17850441 -117.57979149 218.98457545 -114.7109375 212.81030273 C-112.8210785 208.69041012 -110.98290164 204.54883826 -109.1484375 200.40405273 C-106.39303674 194.17850441 -103.57979149 187.98457545 -100.7109375 181.81030273 C-98.8210785 177.69041012 -96.98290164 173.54883826 -95.1484375 169.40405273 C-92.39303674 163.17850441 -89.57979149 156.98457545 -86.7109375 150.81030273 C-84.46637255 145.91715115 -82.29340451 140.99288569 -80.1159668 136.06958008 C-78.10700779 131.53533408 -76.05739203 127.02376502 -73.9609375 122.52905273 C-72.11642977 118.56236944 -70.36893069 114.57714001 -68.7109375 110.52905273 C-66.58776843 105.36018746 -64.26071554 100.30324978 -61.87524414 95.25219727 C-59.71870502 90.66962424 -57.66072632 86.05161604 -55.6484375 81.40405273 C-53.12100168 75.57020589 -50.48512524 69.79881468 -47.7734375 64.04858398 C-45.6530302 59.53325237 -43.63156441 54.98118047 -41.6484375 50.40405273 C-39.12288063 44.57497727 -36.49811595 38.80364056 -33.77563477 33.06396484 C-32.23535697 29.79867927 -30.75884532 26.5192032 -29.36328125 23.18920898 C-21.49992209 4.43397652 -21.49992209 4.43397652 -13.33026123 1.04668999 C-8.97511596 -0.23608027 -4.50580546 -0.01969621 0 0 Z " fill="#FEFEFE" transform="translate(4108.1484375,373.595947265625)"/>
<path d="M0 0 C45.54 0 91.08 0 138 0 C138.00586624 10.3090155 138.01173248 20.61803101 138.01777649 31.23944092 C138.02185889 38.2337189 138.02595504 45.22799686 138.03013611 52.22227478 C138.03067915 53.13085455 138.03122219 54.03943431 138.03178169 54.9755468 C138.06779208 115.13395135 138.10735725 175.29235122 138.15898132 235.45074463 C138.15997689 236.61212142 138.16097246 237.7734982 138.16199819 238.97006823 C138.18365617 264.20924244 138.20597882 289.44841602 138.22898628 314.68758903 C138.24026491 327.06467513 138.25139664 339.44176136 138.26245117 351.81884766 C138.26355374 353.05052377 138.2646563 354.28219988 138.26579228 355.55119951 C138.30146785 395.48131181 138.32744144 435.41142327 138.34838969 475.34154579 C138.36996595 516.37114354 138.40131835 557.40072247 138.44499113 598.43030294 C138.45115348 604.22397434 138.45720393 610.01764585 138.46318626 615.81131744 C138.46495759 617.52175255 138.46495759 617.52175255 138.46676469 619.2667419 C138.48549424 637.6304362 138.49390244 655.99412146 138.49846124 674.35782414 C138.50326304 692.81458753 138.51891386 711.27131637 138.54566566 729.72806123 C138.56123357 740.69673139 138.56845638 751.66533342 138.56376929 762.63401402 C138.56145798 769.96075335 138.56998687 777.28742828 138.58732411 784.61414733 C138.59689301 788.78903411 138.60175428 792.96377859 138.59339563 797.13867125 C138.58587589 800.94099049 138.59224923 804.74303013 138.60944067 808.54531563 C138.61498784 810.5483513 138.60594931 812.55141142 138.59621885 814.55443114 C138.68483574 827.66531516 141.10560147 839.70633327 150.0625 849.6875 C171.4283034 869.79099117 214.70771324 862.5946857 237 863 C237 907.22 237 951.44 237 997 C224.66625 997.061875 212.3325 997.12375 199.625 997.1875 C193.8718335 997.22846802 193.8718335 997.22846802 188.00244141 997.27026367 C141.50809785 997.46234316 95.42650193 991.46486639 57 963 C56.08565186 962.32469238 56.08565186 962.32469238 55.15283203 961.63574219 C37.08968878 948.15804001 24.19748439 932.58716579 15 912 C14.68546875 911.30616211 14.3709375 910.61232422 14.046875 909.89746094 C3.41857308 886.21246434 -0.17563787 861.08263385 -0.12304783 835.24866104 C-0.12378895 833.785061 -0.1249691 832.32146113 -0.12654433 830.85786176 C-0.12959614 826.85005854 -0.12645263 822.84228092 -0.12226619 818.83447962 C-0.11881808 814.46910168 -0.12120543 810.10372622 -0.12284368 805.73834777 C-0.12491375 798.09237365 -0.12327991 790.44640732 -0.11920547 782.80043411 C-0.11316381 771.4311982 -0.11287029 760.06196719 -0.11374746 748.69272997 C-0.11506064 729.56672012 -0.1117227 710.44071373 -0.10573006 691.3147049 C-0.09981217 672.37872551 -0.09596394 653.44274757 -0.09487724 634.50676727 C-0.09477413 632.74041244 -0.09477413 632.74041244 -0.09466894 630.93837368 C-0.09433061 624.958043 -0.09402922 618.97771233 -0.09374207 612.99738166 C-0.09164189 570.64343575 -0.0849052 528.28949172 -0.07543945 485.93554688 C-0.06625447 444.79036469 -0.05917112 403.64518301 -0.05493164 362.5 C-0.05480011 361.23163079 -0.05466859 359.96326158 -0.05453308 358.65645694 C-0.05321455 345.91892244 -0.05193874 333.18138794 -0.05069422 320.44385344 C-0.04815803 294.49624 -0.04533678 268.54862658 -0.04234314 242.60101318 C-0.04220585 241.40799508 -0.04206856 240.21497697 -0.04192711 238.9858068 C-0.03479853 177.26013975 -0.02343769 115.53447357 -0.0111084 53.80880737 C-0.01093499 52.94052726 -0.01076159 52.07224714 -0.01058293 51.1776555 C-0.00716841 34.11843698 -0.00356629 17.05921849 0 0 Z " fill="#FEC700" transform="translate(1856,89)"/>
<path d="M0 0 C1.4643045 -0.00503792 1.4643045 -0.00503792 2.95819092 -0.01017761 C6.18120602 -0.01966698 9.40416907 -0.02162962 12.62719727 -0.02270508 C14.87012249 -0.02591869 17.11304751 -0.02928284 19.35597229 -0.03279114 C24.05584194 -0.0387771 28.75569321 -0.04063155 33.45556641 -0.04003906 C39.47578678 -0.03993739 45.49588936 -0.05359766 51.51608181 -0.07081127 C56.1477767 -0.08193215 60.7794431 -0.08395825 65.41114998 -0.08342934 C67.63069121 -0.08460901 69.85023319 -0.08903005 72.06976128 -0.0967617 C75.17419561 -0.10656466 78.278374 -0.10368239 81.3828125 -0.09765625 C82.29781021 -0.10327576 83.21280792 -0.10889526 84.15553284 -0.11468506 C90.25810148 -0.08460091 95.04486483 0.34541823 99.94360352 4.33276367 C105.53395305 11.13183743 105.68873404 17.23132912 105.63362694 25.73179626 C105.63798726 26.89937709 105.64234758 28.06695792 105.64684004 29.26991999 C105.65590431 32.51202782 105.65153475 35.75379726 105.64150618 38.995892 C105.63389672 42.52255286 105.64367556 46.04917257 105.65123618 49.5758276 C105.66207569 55.75716928 105.66173984 61.93843237 105.6540947 68.11977768 C105.64275704 77.31157332 105.64854336 86.50330254 105.65771962 95.69509771 C105.6735271 112.11068246 105.67214359 128.52623221 105.66348288 144.94182029 C105.65594089 159.30723576 105.65396392 173.67263838 105.65755081 188.03805542 C105.65777997 188.99036495 105.65800912 189.94267449 105.65824522 190.92384189 C105.65917921 194.78942375 105.66013441 198.65500562 105.66112451 202.52058747 C105.67030476 238.79435926 105.66197597 275.06810874 105.64583382 311.34187709 C105.63159665 343.58006217 105.63287052 375.81821171 105.6472168 408.05639648 C105.66327521 444.26315767 105.66965375 480.46989914 105.66038001 516.6766634 C105.65941783 520.53526624 105.65847931 524.39386908 105.65755081 528.25247192 C105.65731358 529.20258199 105.65707635 530.15269206 105.65683193 531.13159334 C105.65341724 545.48917269 105.65741455 559.8467378 105.66498947 574.20431519 C105.67355811 590.52694624 105.67144228 606.84953678 105.65514724 623.17216277 C105.64632503 632.31118007 105.64578255 641.45010966 105.65708576 650.58912472 C105.66379982 656.68963041 105.65965 662.7900656 105.64657146 668.89056082 C105.63941836 672.36907163 105.63702956 675.84740785 105.6477894 679.32591331 C105.65685699 683.07035568 105.64761044 686.81431434 105.63362694 690.55873108 C105.64065044 691.64213071 105.64767393 692.72553035 105.65491027 693.84176028 C105.59958203 701.20943755 104.73943017 706.12500153 99.94360352 711.95776367 C94.28474952 716.56380762 88.37947082 716.43884484 81.41455078 716.41992188 C80.43980804 716.42503281 79.46506531 716.43014374 78.46078491 716.43540955 C75.24796357 716.44927664 72.03535743 716.448351 68.82250977 716.44604492 C66.58340882 716.44993326 64.34430861 716.45426822 62.10520935 716.45903015 C57.41549283 716.46648604 52.7258516 716.4662055 48.03613281 716.4609375 C42.03278355 716.45514198 36.02974271 716.47207916 30.02644444 716.49528217 C25.40327662 716.51002844 20.78018294 716.51089001 16.15699577 716.50777245 C13.94386115 716.50828515 11.73072232 716.51351327 9.51761055 716.52358437 C6.4205545 716.53594929 3.32409756 716.52915656 0.22705078 716.51757812 C-0.68278061 716.52522186 -1.592612 716.5328656 -2.53001404 716.54074097 C-9.00832954 716.48733014 -13.64195967 715.38555137 -18.99389648 711.52026367 C-23.58465036 705.28995484 -24.18405517 698.03482713 -24.12865734 690.52636623 C-24.13380725 689.59581798 -24.13895715 688.66526972 -24.14426312 687.70652303 C-24.15785559 684.59510096 -24.15020404 681.48410253 -24.1426239 678.37266541 C-24.14806433 676.11687828 -24.15481629 673.861094 -24.1627658 671.60531431 C-24.18079991 665.41175751 -24.18023293 659.21832055 -24.17663634 653.02474368 C-24.1760769 647.03010602 -24.18956699 641.03550462 -24.20271805 635.04088502 C-24.22912902 622.78122956 -24.24167306 610.52159669 -24.24628258 598.26191521 C-24.25089124 586.12532004 -24.26168251 573.98875623 -24.28071022 561.85217476 C-24.28189035 561.09723442 -24.28307048 560.34229408 -24.28428637 559.56447676 C-24.29031188 555.73043277 -24.29644765 551.89638896 -24.30262587 548.06234521 C-24.34617478 520.9139676 -24.37589287 493.76559073 -24.39746094 466.6171875 C-24.41844421 440.24478021 -24.44570242 413.87239159 -24.48144531 387.5 C-24.48254479 386.68692326 -24.48364427 385.87384653 -24.48477706 385.0361311 C-24.49582551 376.87079456 -24.50700141 368.7054582 -24.51827068 360.54012196 C-24.54122409 343.90675892 -24.56332686 327.27339478 -24.58491516 310.64002991 C-24.58590878 309.87527405 -24.5869024 309.1105182 -24.58792613 308.32258793 C-24.65416782 257.26349492 -24.70051886 206.20438064 -24.74389648 155.14526367 C-25.3381543 155.59853027 -25.93241211 156.05179688 -26.54467773 156.51879883 C-29.27750079 158.6029483 -32.01069618 160.68660896 -34.74389648 162.77026367 C-35.6784668 163.48311523 -36.61303711 164.1959668 -37.57592773 164.93041992 C-42.94807231 169.02527138 -48.33203923 173.10303994 -53.74389648 177.14526367 C-58.19651979 180.4727661 -62.63339189 183.81893453 -67.04858398 187.19604492 C-67.97155273 187.90180664 -68.89452148 188.60756836 -69.84545898 189.3347168 C-71.635913 190.70529674 -73.42507154 192.07757145 -75.21264648 193.4519043 C-94.01903972 207.84781986 -94.01903972 207.84781986 -103.74389648 207.14526367 C-108.80998101 206.05257877 -111.45766439 204.14203244 -114.74389648 200.14526367 C-117.95269527 194.18880287 -118.17340975 189.14638604 -118.13208008 182.45581055 C-118.13733704 181.40289322 -118.14259399 180.34997589 -118.14801025 179.26515198 C-118.1611727 175.79795327 -118.15248516 172.33121674 -118.14233398 168.86401367 C-118.14435579 166.4469799 -118.14726812 164.02994673 -118.15103149 161.61291504 C-118.15544977 156.55251241 -118.14903956 151.49226887 -118.13500977 146.43188477 C-118.11791842 139.95212896 -118.12776223 133.47274598 -118.14572716 126.99300385 C-118.15657825 122.00353192 -118.15311251 117.01414807 -118.14534378 112.02467346 C-118.14334545 109.63570613 -118.14578812 107.24673075 -118.15278244 104.85777283 C-118.16041847 101.51653926 -118.14876182 98.17590578 -118.13208008 94.8347168 C-118.13815277 93.85165054 -118.14422546 92.86858429 -118.15048218 91.85572815 C-118.08723573 85.00248627 -117.20435104 80.06186992 -112.65795898 74.67260742 C-108.61324211 71.16465592 -104.3954839 67.92686765 -100.11889648 64.70776367 C-99.18883789 64.00329102 -98.2587793 63.29881836 -97.30053711 62.57299805 C-90.54643054 57.46958962 -83.74027596 52.43918872 -76.91137695 47.43652344 C-70.96912864 43.07439817 -65.097544 38.62540266 -59.24389648 34.14526367 C-50.96679431 27.81280026 -42.6252449 21.57774716 -34.21264648 15.42651367 C-31.25564629 13.26385495 -28.32002054 11.07652297 -25.40014648 8.86401367 C-24.71807129 8.35136963 -24.03599609 7.83872559 -23.33325195 7.31054688 C-22.0666259 6.35766501 -20.80482374 5.3983202 -19.54907227 4.43115234 C-13.25312369 -0.27772636 -7.56305611 -0.00373761 0 0 Z " fill="#FEFEFE" transform="translate(3592.743896484375,373.854736328125)"/>
<path d="M0 0 C1.76731641 1.52178475 3.51819213 3.06292522 5.25 4.625 C6.01957031 5.31207031 6.78914063 5.99914062 7.58203125 6.70703125 C18.96008679 17.44743744 26.33477962 30.30784932 32.25 44.625 C32.58241699 45.42341309 32.91483398 46.22182617 33.25732422 47.04443359 C43.31769841 71.68729369 48.99585232 98.44480726 50.36328125 124.98046875 C50.4052746 125.76708578 50.44726795 126.55370281 50.49053383 127.36415672 C51.56108898 147.88405696 51.51580947 168.40624168 51.44561768 188.94805908 C51.43477103 192.94247834 51.43519542 196.93686396 51.43562412 200.93129539 C51.43360538 278.9322562 51.43360538 278.9322562 44.25 310.625 C43.98147217 311.85234863 43.98147217 311.85234863 43.70751953 313.10449219 C38.46373441 336.87694177 29.94360782 360.71149679 14.25 379.625 C13.56421875 380.47449219 12.8784375 381.32398438 12.171875 382.19921875 C-7.52263126 405.43144188 -35.28610993 415.11647522 -64.75 418.625 C-65.52553223 418.71998779 -66.30106445 418.81497559 -67.10009766 418.9128418 C-101.22774182 422.74377371 -136.6579079 417.68004744 -164.12109375 395.95458984 C-168.88637605 392.06494245 -173.36723675 387.93889126 -177.75 383.625 C-178.91789062 382.49384766 -178.91789062 382.49384766 -180.109375 381.33984375 C-194.18026203 366.79493748 -202.29077525 347.79924681 -207.75 328.625 C-208.11593262 327.34786133 -208.11593262 327.34786133 -208.48925781 326.04492188 C-215.98071514 299.56304857 -218.97080059 272.99645288 -220.75 245.625 C-220.7994577 244.86652771 -220.84891541 244.10805542 -220.89987183 243.32659912 C-221.82310125 228.63824745 -221.9500901 213.96388853 -221.9375 199.25 C-221.93722809 198.05000366 -221.93695618 196.85000732 -221.93667603 195.61364746 C-221.89857069 158.84352587 -221.02830383 121.60293447 -212.75 85.625 C-212.56711426 84.80483398 -212.38422852 83.98466797 -212.19580078 83.13964844 C-206.82248374 59.23047029 -198.49453494 36.70500195 -182.75 17.625 C-182.10417969 16.82707031 -181.45835938 16.02914062 -180.79296875 15.20703125 C-140.72909973 -32.20052049 -48.19820805 -38.29264529 0 0 Z " fill="#010305" transform="translate(1523.75,532.375)"/>
<path d="M0 0 C4.9446299 0.01905291 9.88926835 0.02053933 14.8339293 0.02407622 C24.15102307 0.03331422 33.46800828 0.05781337 42.78505474 0.08812469 C53.41182362 0.12192923 64.03859832 0.13821946 74.66540778 0.153211 C96.48268394 0.18437266 118.29986313 0.23696834 140.11705613 0.30418181 C140.13632591 7.65471762 140.14931225 15.00524675 140.15825486 22.3558023 C140.16198925 24.84805331 140.16707856 27.34030272 140.17363572 29.8325479 C140.31207995 83.86855353 140.31207995 83.86855353 134.11705613 108.30418181 C133.93803758 109.01767791 133.75901902 109.731174 133.57457566 110.46629119 C128.99816883 128.0534104 121.15164787 145.58284094 105.30455613 155.67918181 C103.59415974 156.59032755 101.86344522 157.46408211 100.11705613 158.30418181 C99.15025926 158.79144744 98.18346238 159.27871306 97.18736863 159.78074431 C66.22889128 174.25773013 29.57675952 175.68620702 -3.98475051 175.61985564 C-7.31638011 175.61668568 -10.64712515 175.64033594 -13.97864699 175.66550994 C-54.28946994 175.7854073 -90.82269068 169.65646607 -120.88294387 141.30418181 C-121.65638137 140.606799 -122.42981887 139.90941619 -123.22669387 139.19090056 C-134.18629635 128.92565646 -144.15101831 111.96094905 -145.04407668 96.51780486 C-145.36009063 72.42174095 -144.69095885 50.54647293 -127.08094192 32.32786345 C-125.70354406 30.96411951 -124.29371563 29.63337157 -122.88294387 28.30418181 C-122.10306106 27.56683806 -121.32317824 26.82949431 -120.51966262 26.06980681 C-88.38386249 -1.79922321 -39.79378505 -0.17985496 0 0 Z " fill="#010304" transform="translate(2402.882943868637,784.6958181858063)"/>
<path d="M0 0 C26.4 0 52.8 0 80 0 C78.87489403 13.5012716 78.87489403 13.5012716 78.19970703 18.20141602 C78.04929962 19.26034561 77.89889221 20.31927521 77.743927 21.41029358 C77.58350922 22.51368576 77.42309143 23.61707794 77.2578125 24.75390625 C77.08877411 25.9348436 76.91973572 27.11578094 76.74557495 28.33250427 C76.38916485 30.81769159 76.03107811 33.30263899 75.67138672 35.78735352 C75.13004685 39.52762986 74.59385285 43.26861475 74.05859375 47.00976562 C72.47897669 58.01490072 70.87056005 69.01305131 69.11077881 79.99090576 C67.44298267 90.41781015 65.92067846 100.8669419 64.375 111.3125 C63.90652694 114.47565908 63.43778704 117.63877788 62.96841431 120.80180359 C62.67959372 122.74834659 62.39129391 124.69496696 62.10360718 126.64167786 C61.97322052 127.52087387 61.84283386 128.40006989 61.70849609 129.3059082 C61.59541107 130.07022659 61.48232605 130.83454498 61.36581421 131.62202454 C60.93559692 134.41865225 60.4651711 137.20897343 60 140 C33.6 140 7.2 140 -20 140 C-18.77119649 130.16957194 -17.52270875 120.35873175 -16.1171875 110.5546875 C-15.94176422 109.324086 -15.76634094 108.0934845 -15.58560181 106.82559204 C-15.11435921 103.52373998 -14.64175201 100.22209016 -14.16824341 96.92056274 C-13.87256166 94.85799098 -13.57744111 92.79533962 -13.2824707 90.73266602 C-9.64196185 65.28147322 -5.90394832 39.84517163 -2.10317993 14.41738892 C-1.97180634 13.5377951 -1.84043274 12.65820129 -1.70507812 11.75195312 C-1.59232544 10.99821411 -1.47957275 10.2444751 -1.36340332 9.46789551 C-0.89889545 6.31339245 -0.45092476 3.15647334 0 0 Z " fill="#010204" transform="translate(742,721)"/>
</svg>
